<svg width="283" height="327" viewBox="0 0 283 327" fill="none" xmlns="http://www.w3.org/2000/svg">
<g filter="url(#filter0_d_8_1140)">
<path d="M138.529 303.673C135.385 303.673 132.437 302.971 130.232 301.696L17.3599 236.502C15.1963 235.253 14.0029 233.6 14 231.853C13.9971 230.116 15.171 228.477 17.3072 227.237L90.5556 184.652C90.6827 191.948 91.3428 207.326 91.6952 209.736C92.1071 212.548 92.3553 219.495 92.3553 225.612C92.3553 231.733 92.1915 245.375 92.7722 246.863C92.8903 246.967 93.0044 247.061 93.1236 247.16L93.1335 247.165C93.2218 247.237 93.3102 247.306 93.3995 247.373C86.3797 252.695 87.0775 260.327 95.4939 265.188C100.083 267.837 106.096 269.162 112.11 269.162C118.126 269.162 124.141 267.837 128.73 265.186C137.907 259.885 137.908 251.291 128.731 245.987C127.145 245.072 125.387 244.314 123.519 243.715C123.496 242.948 123.467 242.223 123.432 241.57C123.271 238.504 123.145 231.732 123.145 226.302C123.145 223.382 123.182 220.852 123.268 219.494C123.339 218.393 123.37 216.994 123.37 215.337C123.37 211.139 123.175 205.282 122.937 198.409C122.604 188.82 122.108 177.657 122.108 174.512C122.148 174.299 122.165 173.896 122.165 173.384C122.166 171.714 121.99 168.893 121.861 167.815C121.843 167.665 121.835 167.458 121.835 167.205C121.836 166.988 121.841 166.737 121.852 166.457L129.444 162.043C129.981 161.731 130.563 161.453 131.183 161.212L131.132 178.8C131.129 179.822 131.369 180.962 131.787 182.101C126.1 188.997 146.452 199.803 169.14 213.435C195.203 229.092 210.135 236.013 219.501 236.013C222.467 236.013 224.875 235.317 226.901 233.987C230.658 231.517 226.908 227.05 218.804 221.231L218.853 204.111L258.895 227.238C261.059 228.487 262.249 230.138 262.253 231.886C262.256 233.621 261.083 235.261 258.95 236.501L146.811 301.694C144.617 302.968 141.676 303.673 138.529 303.673ZM105.577 242.547C105.333 241.395 104.803 240.522 103.799 240.522C103.645 240.522 103.482 240.542 103.306 240.584C103.285 237.825 103.265 234.83 103.265 232.74C103.265 232.735 103.265 232.73 103.265 232.726C103.265 228.013 104.426 216.105 104.589 212.797C104.752 209.498 104.999 196.261 105.492 196.261C105.494 196.261 105.496 196.261 105.497 196.262C105.993 196.341 109.052 216.849 109.633 219.742C110.208 222.635 112.112 238.013 112.192 240.91C112.2 241.196 112.214 241.571 112.232 242.013C112.193 242.013 112.153 242.013 112.113 242.013C109.911 242.013 107.709 242.191 105.577 242.547Z" fill="#359EFF"/>
</g>
<g filter="url(#filter1_d_8_1140)">
<path d="M138.827 304C135.768 304 132.708 303.327 130.381 301.984L17.5096 236.788C15.173 235.439 14.0021 233.657 14 231.879C13.9979 230.111 15.1487 228.346 17.4554 227.005L90.8484 184.337C90.8504 184.449 90.8524 184.563 90.8544 184.679L17.606 227.264C15.4698 228.505 14.2959 230.143 14.2988 231.88C14.3017 233.628 15.4951 235.28 17.6587 236.529L130.53 301.723C132.736 302.999 135.684 303.701 138.828 303.701C141.974 303.701 144.915 302.996 147.11 301.722L259.248 236.528C261.381 235.288 262.554 233.648 262.551 231.913C262.548 230.165 261.357 228.515 259.193 227.265L219.151 204.138L219.152 203.794L259.341 227.007C263.304 229.294 263.912 232.821 261.157 235.479C260.673 235.945 260.087 236.384 259.397 236.785L147.26 301.979C144.944 303.325 141.887 304 138.827 304ZM122.151 166.484C122.155 166.371 122.161 166.253 122.165 166.131L129.593 161.812C130.179 161.471 130.813 161.174 131.482 160.92L131.481 161.239C130.862 161.48 130.28 161.758 129.743 162.07L122.151 166.484Z" fill="url(#paint0_linear_8_1140)"/>
</g>
<path d="M219.799 236.04C210.433 236.04 195.501 229.119 169.438 213.462C146.75 199.83 126.398 189.024 132.085 182.128C132.911 184.372 134.431 186.608 136.162 187.908C136.875 188.443 150.448 198.622 175.229 212.935C201.654 228.197 213.687 232.88 214.321 233.126C214.842 233.329 215.343 233.424 215.813 233.424C217.698 233.424 219.071 231.881 219.079 229.453L219.102 221.258C227.206 227.077 230.956 231.544 227.199 234.014C225.173 235.344 222.765 236.04 219.799 236.04Z" fill="url(#paint1_linear_8_1140)"/>
<path d="M222.016 45.2523C221.494 44.8372 211.551 36.9447 182.918 20.4059C159.096 6.6465 144.602 0.651596 143.84 0.336807C142.662 -0.148773 141.581 -0.0911865 140.746 0.393402C138.362 1.77968 135.976 3.16592 133.592 4.55318C134.427 4.06758 135.509 4.01097 136.686 4.49557C137.449 4.81036 151.942 10.8062 175.765 24.5646C204.398 41.1044 214.34 48.996 214.862 49.4121C217.455 51.4697 219.572 55.6384 219.562 58.6721L219.08 229.454C219.074 231.148 218.402 232.414 217.355 233.022C219.741 231.635 222.126 230.25 224.509 228.864C225.556 228.255 226.227 226.991 226.233 225.294L226.717 54.5133C226.725 51.4796 224.608 47.3118 222.016 45.2523Z" fill="#1429A9"/>
<path d="M175.765 24.564C204.398 41.1038 214.34 48.9954 214.863 49.4115C217.455 51.469 219.572 55.6378 219.562 58.6715L219.08 229.453C219.07 232.487 216.929 234.14 214.321 233.126C213.688 232.88 201.654 228.197 175.23 212.935C150.449 198.623 136.876 188.443 136.163 187.908C133.554 185.949 131.423 181.861 131.431 178.828L131.917 8.04701C131.923 5.01332 134.07 3.4175 136.687 4.49493C137.449 4.80972 151.942 10.8056 175.765 24.564Z" fill="#525EDB"/>
<path d="M214.214 228.546C213.962 228.546 213.696 228.495 213.424 228.39C213.304 228.344 200.84 223.436 175.499 208.798C151.702 195.053 137.686 184.589 137.548 184.484C136.137 183.425 134.899 181.051 134.899 179.403V11.2005C134.899 9.89366 135.683 9.03864 136.711 9.03864C136.973 9.03864 137.251 9.09424 137.536 9.2124C137.685 9.27397 152.614 15.4874 175.499 28.7045C202.9 44.5314 213.291 52.6911 213.392 52.7715C214.833 53.9155 216.096 56.406 216.096 58.1001V226.301C216.096 227.649 215.279 228.546 214.214 228.546ZM136.86 68.2438L136.544 180.235C139.231 182.195 152.62 191.789 173.56 203.884C195.925 216.802 208.225 222.101 210.59 223.086L210.599 220.1C212.041 220.75 213.018 221.165 213.529 221.377L213.848 109.044C211.896 107.572 201.035 99.5936 176.828 85.6118C156.628 73.9448 142.676 67.7751 139.799 66.5348L139.792 69.5447C138.414 68.9191 137.424 68.4861 136.86 68.2438Z" fill="black"/>
<path d="M224.842 77.9325C224.578 77.7796 224.217 77.8004 223.821 78.0308C223.028 78.4876 222.383 79.6058 222.385 80.5203L222.408 88.6105C222.41 89.0643 222.571 89.3841 222.83 89.534L224.261 90.3672C224.003 90.2162 223.841 89.8955 223.84 89.4417L223.815 81.3515C223.814 80.4379 224.459 79.3188 225.251 78.863C225.648 78.6326 226.01 78.6117 226.27 78.7647L224.842 77.9325Z" fill="#525EDB"/>
<path d="M225.251 78.8629C226.042 78.4061 226.691 78.7755 226.693 79.6901L226.717 87.7802C226.72 88.6938 226.073 89.8129 225.284 90.2697C224.494 90.7265 223.842 90.3561 223.841 89.4415L223.815 81.3514C223.814 80.4378 224.459 79.3187 225.251 78.8629Z" fill="#3E50B8"/>
<path d="M224.842 100.251C224.578 100.099 224.217 100.12 223.821 100.349C223.028 100.806 222.383 101.925 222.385 102.839L222.408 125.37C222.41 125.825 222.571 126.145 222.83 126.295L224.261 127.127C224.003 126.977 223.841 126.656 223.84 126.201L223.815 103.671C223.814 102.757 224.459 101.637 225.251 101.18C225.648 100.951 226.01 100.931 226.27 101.083L224.842 100.251Z" fill="#525EDB"/>
<path d="M225.251 101.181C226.042 100.724 226.691 101.095 226.693 102.009L226.717 124.541C226.72 125.453 226.073 126.573 225.284 127.03C224.494 127.487 223.842 127.116 223.841 126.202L223.815 103.671C223.814 102.758 224.459 101.637 225.251 101.181Z" fill="#3E50B8"/>
<path d="M158.698 19.0005C158.698 19.0005 158.698 22.0639 158.698 23.8156C158.698 25.5673 160.47 28.0231 162.634 29.2733L188.359 44.1319C190.526 45.3821 192.298 44.973 192.299 43.2233C192.299 41.4706 192.299 38.4071 192.299 38.4071L175.499 27.6169L158.698 19.0005Z" fill="#525EDB"/>
<path d="M176.828 85.6114C201.035 99.5932 211.896 107.571 213.848 109.044L213.529 221.377C211.164 220.393 198.864 215.093 176.498 202.174C155.559 190.081 142.17 180.486 139.483 178.527L139.8 66.5344C142.676 67.7747 156.628 73.9444 176.828 85.6114Z" fill="#0074DF"/>
<path d="M173.889 87.32C198.096 101.301 208.957 109.28 210.909 110.752L210.59 223.085C208.225 222.1 195.925 216.802 173.559 203.883C152.62 191.788 139.23 182.195 136.543 180.234L136.86 68.243C139.737 69.4833 153.689 75.652 173.889 87.32Z" fill="#359EFF"/>
<path d="M172.297 34.8542L216.096 60.5269L216.972 51.677L186.697 31.9287L139.482 7.69989H133.592V13.5418L172.297 34.8542Z" fill="#525EDB"/>
<path d="M143.83 54.7623V46.9412L145.03 47.6353V50.7802L147.774 52.3651L147.773 49.2192L148.974 49.9133V57.7334L147.774 57.0413V53.5726L145.03 51.9878V55.4554L143.83 54.7623Z" fill="white"/>
<path d="M151.51 55.7075L153.767 57.0113C153.767 56.5565 153.682 56.1504 153.514 55.7939C153.345 55.4374 153.085 55.1574 152.732 54.9548C152.427 54.7781 152.162 54.7492 151.935 54.8644C151.707 54.9796 151.565 55.2606 151.51 55.7075ZM152.867 60.1264C152.515 59.9229 152.186 59.6637 151.883 59.3489C151.58 59.0341 151.314 58.6786 151.085 58.2844C150.859 57.8902 150.68 57.4671 150.553 57.0133C150.424 56.5615 150.362 56.0918 150.362 55.6062C150.362 55.1276 150.427 54.7343 150.558 54.4275C150.689 54.1207 150.864 53.8992 151.08 53.7612C151.298 53.6242 151.548 53.5656 151.831 53.5845C152.115 53.6053 152.404 53.6996 152.7 53.8714C153.046 54.071 153.35 54.3143 153.612 54.6013C153.874 54.8883 154.094 55.207 154.27 55.5556C154.444 55.9041 154.577 56.2755 154.668 56.6697C154.757 57.065 154.802 57.4651 154.802 57.8713C154.802 58.0073 154.797 58.1314 154.787 58.2456C154.777 58.3598 154.764 58.4482 154.75 58.5118L151.52 56.6469C151.576 57.205 151.737 57.7015 152.002 58.1374C152.268 58.5743 152.607 58.912 153.022 59.1523C153.243 59.2794 153.448 59.3598 153.638 59.3936C153.827 59.4273 154.016 59.4313 154.202 59.4025L154.606 60.4968C154.364 60.5405 154.095 60.5365 153.798 60.4849C153.5 60.4333 153.19 60.3131 152.867 60.1264Z" fill="white"/>
<path d="M157.204 62.6307C156.776 62.3844 156.475 62.0637 156.304 61.6684C156.131 61.2742 156.044 60.8214 156.044 60.311V53.3747L157.235 54.0618V61.0706C157.235 61.2385 157.262 61.3715 157.317 61.4708C157.374 61.5711 157.432 61.6396 157.494 61.6754C157.521 61.6903 157.547 61.7062 157.572 61.7201C157.595 61.733 157.632 61.7469 157.68 61.7588L157.836 62.877C157.676 62.864 157.467 62.7836 157.204 62.6307Z" fill="white"/>
<path d="M160.112 64.3109C159.685 64.0636 159.385 63.7439 159.212 63.3486C159.038 62.9544 158.953 62.5016 158.953 61.9912V55.054L160.143 55.7421V62.7509C160.143 62.9177 160.171 63.0517 160.226 63.151C160.282 63.2503 160.341 63.3198 160.402 63.3546C160.43 63.3705 160.456 63.3854 160.48 63.4003C160.504 63.4132 160.54 63.4261 160.589 63.438L160.744 64.5562C160.585 64.5442 160.376 64.4628 160.112 64.3109Z" fill="white"/>
<path d="M163.943 65.4005C164.315 65.615 164.608 65.6071 164.823 65.3757C165.037 65.1443 165.143 64.7342 165.144 64.1443C165.144 63.5465 165.036 63.0073 164.823 62.5287C164.608 62.051 164.315 61.7045 163.943 61.489C163.57 61.2735 163.278 61.2824 163.069 61.5158C162.858 61.7491 162.753 62.1652 162.752 62.763C162.753 63.3529 162.858 63.8861 163.069 64.3628C163.278 64.8385 163.57 65.185 163.943 65.4005ZM163.943 66.5236C163.626 66.3409 163.323 66.0976 163.033 65.7948C162.743 65.4919 162.485 65.1433 162.261 64.7511C162.036 64.3588 161.859 63.9318 161.728 63.474C161.597 63.0162 161.531 62.5436 161.531 62.057C161.531 61.5714 161.597 61.1742 161.728 60.8673C161.859 60.5605 162.036 60.34 162.261 60.207C162.485 60.0729 162.743 60.0203 163.033 60.0491C163.323 60.0769 163.626 60.1811 163.943 60.3649C164.261 60.5486 164.566 60.7948 164.858 61.1037C165.152 61.4125 165.409 61.763 165.631 62.1533C165.851 62.5436 166.029 62.9686 166.164 63.4293C166.299 63.8901 166.365 64.3638 166.365 64.8494C166.364 65.335 166.298 65.7312 166.164 66.0371C166.029 66.3409 165.851 66.5624 165.631 66.6974C165.409 66.8325 165.152 66.8841 164.859 66.8494C164.566 66.8156 164.261 66.7074 163.943 66.5236Z" fill="white"/>
<path d="M171.614 70.9541C171.318 70.7833 171.067 70.5867 170.863 70.3652C170.66 70.1438 170.495 69.9035 170.366 69.6423C170.239 69.3811 170.145 69.1041 170.087 68.8101C170.028 68.5182 170 68.2113 170 67.8926V65.0942L169.275 64.6762V63.6474L170.061 64.0426L170.206 62.5243L171.2 63.0973V64.7L172.494 65.4477L172.493 66.5351L171.201 65.7884V68.5867C171.201 69.2729 171.438 69.7525 171.914 70.0276C172.004 70.0802 172.096 70.12 172.189 70.1497C172.282 70.1795 172.366 70.1974 172.442 70.2014L172.65 71.3374C172.511 71.3126 172.354 71.2729 172.178 71.2143C172.003 71.1577 171.814 71.0693 171.614 70.9541Z" fill="white"/>
<path d="M173.664 71.9941V63.5513L174.854 64.2395V66.4152L174.812 67.5274C175.026 67.4202 175.263 67.3517 175.522 67.3219C175.78 67.2921 176.086 67.3775 176.437 67.5811C176.983 67.8959 177.379 68.3268 177.628 68.873C177.876 69.4192 178.001 70.0676 178.001 70.8173L178 74.4995L176.811 73.8123V70.3089C176.81 69.8223 176.749 69.444 176.624 69.1719C176.5 68.9018 176.296 68.6843 176.013 68.5205C175.793 68.3924 175.597 68.3427 175.428 68.3675C175.259 68.3943 175.068 68.4649 174.854 68.5801V72.6823L173.664 71.9941Z" fill="white"/>
<path d="M180.362 72.3713L182.619 73.6752C182.619 73.2204 182.534 72.8142 182.366 72.4587C182.195 72.1013 181.935 71.8222 181.584 71.6186C181.279 71.4429 181.014 71.4131 180.787 71.5283C180.558 71.6435 180.416 71.9245 180.362 72.3713ZM181.719 76.7903C181.366 76.5867 181.038 76.3276 180.734 76.0128C180.431 75.698 180.165 75.3425 179.937 74.9482C179.711 74.554 179.532 74.131 179.404 73.6782C179.276 73.2254 179.212 72.7566 179.213 72.2701C179.213 71.7914 179.278 71.3992 179.409 71.0914C179.54 70.7845 179.715 70.563 179.932 70.425C180.15 70.288 180.4 70.2294 180.682 70.2483C180.966 70.2691 181.255 70.3635 181.552 70.5353C181.896 70.7349 182.201 70.9781 182.463 71.2651C182.724 71.5521 182.946 71.8709 183.121 72.2194C183.296 72.568 183.429 72.9404 183.519 73.3346C183.609 73.7288 183.653 74.129 183.653 74.5352C183.653 74.6712 183.648 74.7963 183.639 74.9095C183.629 75.0237 183.616 75.1121 183.602 75.1757L180.372 73.3108C180.427 73.8688 180.588 74.3654 180.853 74.8023C181.119 75.2392 181.459 75.5768 181.874 75.8162C182.094 75.9433 182.299 76.0237 182.489 76.0575C182.679 76.0912 182.867 76.0952 183.053 76.0664L183.458 77.1617C183.216 77.2044 182.947 77.2004 182.65 77.1488C182.352 77.0972 182.041 76.977 181.719 76.7903Z" fill="white"/>
<path d="M184.896 78.4813V72.6105L185.879 73.1785L185.962 74.2668L186.004 74.2907C186.183 74.0116 186.401 73.8438 186.656 73.7892C186.911 73.7326 187.173 73.7822 187.443 73.9382C187.684 74.0772 187.877 74.2291 188.023 74.392L187.815 75.4684C187.726 75.385 187.643 75.3135 187.566 75.2529C187.491 75.1933 187.397 75.1318 187.288 75.0682C187.088 74.953 186.876 74.9203 186.656 74.9719C186.435 75.0245 186.245 75.2281 186.086 75.5816V79.1694L184.896 78.4813Z" fill="white"/>
<path d="M189.575 77.6932L191.831 78.9971C191.832 78.5423 191.746 78.1361 191.579 77.7806C191.409 77.4231 191.149 77.1431 190.796 76.9405C190.492 76.7638 190.226 76.7349 189.999 76.8501C189.772 76.9653 189.63 77.2464 189.575 77.6932ZM190.932 82.1122C190.58 81.9087 190.251 81.6495 189.947 81.3347C189.645 81.0199 189.379 80.6644 189.15 80.2702C188.923 79.8759 188.745 79.4529 188.617 79.0001C188.489 78.5472 188.426 78.0785 188.426 77.5919C188.426 77.1133 188.491 76.721 188.622 76.4132C188.753 76.1063 188.928 75.8849 189.145 75.7469C189.363 75.6088 189.613 75.5513 189.896 75.5701C190.18 75.591 190.469 75.6853 190.765 75.8571C191.11 76.0567 191.415 76.3 191.677 76.587C191.939 76.874 192.158 77.1927 192.335 77.5413C192.509 77.8899 192.643 78.2612 192.733 78.6565C192.822 79.0507 192.867 79.4509 192.866 79.8571C192.867 79.9931 192.862 80.1182 192.852 80.2314C192.842 80.3456 192.829 80.434 192.815 80.4976L189.585 78.6326C189.641 79.1907 189.801 79.6873 190.067 80.1232C190.333 80.5601 190.672 80.8978 191.086 81.1381C191.307 81.2652 191.513 81.3456 191.702 81.3794C191.892 81.4132 192.08 81.4171 192.266 81.3883L192.67 82.4827C192.429 82.5264 192.16 82.5224 191.862 82.4707C191.565 82.4191 191.255 82.2989 190.932 82.1122Z" fill="white"/>
<path d="M194.783 84.3363C194.561 84.2082 194.377 84.0135 194.228 83.7533C194.08 83.4921 194.005 83.226 194.005 82.9549C194.005 82.6838 194.08 82.503 194.228 82.4137C194.377 82.3243 194.561 82.3421 194.783 82.4702C195.003 82.5984 195.186 82.792 195.332 83.0502C195.476 83.3094 195.548 83.5746 195.548 83.8457C195.548 84.1168 195.476 84.2985 195.332 84.3899C195.186 84.4803 195.003 84.4634 194.783 84.3363Z" fill="white"/>
<path d="M197.733 86.0409C197.511 85.9128 197.327 85.7172 197.179 85.458C197.03 85.1969 196.956 84.9297 196.956 84.6586C196.957 84.3885 197.031 84.2078 197.178 84.1174C197.327 84.0291 197.511 84.0469 197.734 84.175C197.954 84.3031 198.137 84.4968 198.282 84.756C198.427 85.0141 198.498 85.2793 198.498 85.5504C198.498 85.8215 198.427 86.0032 198.282 86.0946C198.137 86.1859 197.953 86.168 197.733 86.0409Z" fill="white"/>
<path d="M163.885 101.412L164.809 101.945C164.81 101.759 164.774 101.594 164.706 101.448C164.636 101.301 164.529 101.186 164.385 101.103C164.261 101.032 164.152 101.02 164.06 101.066C163.966 101.114 163.908 101.228 163.885 101.412ZM164.441 103.221C164.296 103.138 164.162 103.031 164.038 102.902C163.914 102.773 163.805 102.628 163.711 102.466C163.618 102.306 163.546 102.132 163.493 101.946C163.441 101.761 163.415 101.569 163.415 101.37C163.415 101.175 163.442 101.013 163.496 100.888C163.549 100.762 163.621 100.671 163.709 100.614C163.799 100.558 163.901 100.534 164.017 100.542C164.133 100.551 164.25 100.59 164.372 100.659C164.514 100.742 164.638 100.841 164.746 100.959C164.853 101.076 164.944 101.206 165.015 101.349C165.086 101.492 165.142 101.644 165.178 101.806C165.215 101.967 165.233 102.131 165.233 102.298C165.233 102.353 165.231 102.404 165.227 102.451C165.223 102.497 165.218 102.533 165.212 102.56L163.889 101.796C163.912 102.025 163.978 102.228 164.087 102.407C164.196 102.586 164.335 102.724 164.504 102.821C164.595 102.874 164.679 102.906 164.757 102.921C164.834 102.935 164.91 102.936 164.987 102.924L165.153 103.373C165.053 103.39 164.944 103.389 164.822 103.367C164.701 103.347 164.573 103.298 164.441 103.221ZM159.933 100.56L159.934 98.1548L160.337 98.3881L160.371 98.7357L160.388 98.7446C160.475 98.688 160.572 98.6523 160.674 98.6364C160.776 98.6205 160.894 98.6503 161.024 98.7257C161.176 98.8131 161.299 98.9214 161.39 99.0505C161.483 99.1786 161.552 99.3245 161.601 99.4894C161.699 99.4229 161.803 99.3792 161.91 99.3603C162.017 99.3394 162.137 99.3682 162.27 99.4457C162.49 99.5728 162.653 99.7486 162.757 99.974C162.863 100.199 162.915 100.466 162.914 100.772V102.28L162.423 101.997V100.562C162.423 100.363 162.396 100.207 162.344 100.096C162.292 99.9839 162.212 99.8965 162.105 99.834C161.975 99.7595 161.829 99.7754 161.669 99.8806V101.561L161.181 101.28V99.8449C161.181 99.6453 161.154 99.4904 161.102 99.3782C161.05 99.266 160.969 99.1786 160.859 99.115C160.729 99.0396 160.584 99.0554 160.422 99.1617L160.423 100.841L159.933 100.56ZM158.367 99.2719C158.451 99.3206 158.529 99.3424 158.597 99.3365C158.667 99.3305 158.74 99.3087 158.82 99.2689V98.7307C158.679 98.6682 158.56 98.6265 158.464 98.6036C158.368 98.5808 158.291 98.5718 158.231 98.5788C158.172 98.5857 158.129 98.6076 158.104 98.6453C158.078 98.6821 158.065 98.7307 158.065 98.7893C158.066 98.8975 158.094 98.9919 158.151 99.0733C158.207 99.1547 158.279 99.2213 158.367 99.2719ZM158.209 99.6215C158.026 99.5162 157.877 99.3663 157.765 99.1716C157.651 98.977 157.596 98.7744 157.596 98.5619C157.596 98.4338 157.619 98.3345 157.664 98.262C157.712 98.1885 157.784 98.1458 157.885 98.1319C157.985 98.118 158.113 98.1309 158.267 98.1717C158.422 98.2114 158.605 98.2799 158.82 98.3782C158.817 98.3146 158.809 98.2501 158.796 98.1855C158.784 98.122 158.763 98.0594 158.733 97.9979C158.703 97.9363 158.664 97.8797 158.616 97.8271C158.569 97.7754 158.509 97.7288 158.438 97.688C158.337 97.6295 158.237 97.5947 158.139 97.5838C158.042 97.5728 157.946 97.5738 157.854 97.5848L157.675 97.1051C157.791 97.0873 157.921 97.0893 158.065 97.1101C158.209 97.131 158.365 97.1895 158.532 97.2859C158.792 97.4358 158.986 97.6374 159.115 97.8896C159.244 98.1419 159.308 98.4358 159.307 98.7724V100.197L158.905 99.9651L158.87 99.6811L158.853 99.6711C158.76 99.7089 158.661 99.7277 158.555 99.7287C158.449 99.7297 158.333 99.693 158.209 99.6215ZM155.29 97.8767L155.289 95.4716L155.692 95.704L155.726 96.0476L155.743 96.0575C155.836 96.0069 155.937 95.9751 156.045 95.9632C156.155 95.9512 156.281 95.986 156.425 96.0694C156.648 96.1975 156.811 96.3743 156.913 96.5977C157.014 96.8221 157.066 97.0873 157.065 97.3941V98.9015L156.577 98.6205V97.1866C156.577 96.987 156.553 96.8311 156.501 96.7208C156.45 96.6096 156.367 96.5203 156.252 96.4537C156.16 96.4011 156.081 96.3802 156.013 96.3912C155.942 96.4021 155.864 96.4309 155.776 96.4775V98.1577L155.29 97.8767ZM153.666 96.9393V94.5342L154.068 94.7666L154.103 95.2134L154.12 95.2224C154.193 95.1082 154.281 95.0396 154.386 95.0168C154.491 94.994 154.598 95.0138 154.708 95.0774C154.808 95.135 154.886 95.1965 154.946 95.2641L154.861 95.704C154.824 95.6702 154.791 95.6404 154.759 95.6166C154.728 95.5928 154.689 95.567 154.645 95.5401C154.563 95.4935 154.477 95.4806 154.386 95.5014C154.296 95.5223 154.218 95.6057 154.153 95.7516V97.2203L153.666 96.9393ZM151.809 94.4369L152.733 94.9701C152.734 94.7844 152.698 94.6186 152.63 94.4726C152.56 94.3257 152.453 94.2115 152.309 94.128C152.185 94.0566 152.076 94.0436 151.983 94.0913C151.889 94.139 151.832 94.2542 151.809 94.4369ZM152.364 96.2462C152.22 96.1628 152.086 96.0555 151.962 95.9274C151.838 95.7983 151.728 95.6523 151.635 95.4915C151.542 95.3296 151.468 95.1568 151.418 94.9711C151.364 94.7864 151.338 94.5938 151.338 94.3952C151.338 94.1986 151.365 94.0377 151.419 93.9126C151.473 93.7874 151.544 93.6961 151.633 93.6395C151.723 93.5829 151.825 93.559 151.941 93.567C152.056 93.5749 152.175 93.6147 152.297 93.6842C152.437 93.7666 152.562 93.8659 152.669 93.9831C152.777 94.1012 152.867 94.2313 152.938 94.3743C153.01 94.5163 153.066 94.6693 153.102 94.8311C153.139 94.992 153.157 95.1558 153.157 95.3227C153.157 95.3783 153.155 95.4289 153.151 95.4756C153.147 95.5223 153.141 95.558 153.136 95.5848L151.813 94.8212C151.837 95.0496 151.901 95.2522 152.011 95.4319C152.12 95.6106 152.259 95.7487 152.428 95.847C152.518 95.8986 152.603 95.9324 152.68 95.9463C152.758 95.9602 152.835 95.9612 152.912 95.9493L153.076 96.3971C152.977 96.415 152.867 96.414 152.746 96.3921C152.624 96.3713 152.497 96.3216 152.364 96.2462ZM150.185 94.987C150.041 94.9036 149.899 94.7904 149.759 94.6454C149.62 94.5014 149.499 94.3525 149.398 94.1985L149.626 93.9692C149.719 94.1072 149.812 94.2264 149.903 94.3276C149.995 94.4279 150.096 94.5094 150.203 94.5709C150.315 94.6365 150.399 94.6573 150.453 94.6345C150.506 94.6117 150.533 94.558 150.533 94.4736C150.533 94.424 150.519 94.3733 150.495 94.3217C150.47 94.2691 150.435 94.2154 150.393 94.1628C150.351 94.1082 150.302 94.0536 150.249 93.998C150.196 93.9424 150.141 93.8867 150.088 93.8292C150.02 93.7606 149.951 93.6862 149.88 93.6057C149.81 93.5263 149.747 93.4429 149.692 93.3555C149.637 93.2681 149.591 93.1777 149.556 93.0844C149.521 92.99 149.503 92.8917 149.503 92.7914C149.503 92.5789 149.571 92.4449 149.707 92.3893C149.842 92.3337 150.027 92.3734 150.261 92.5094C150.405 92.5928 150.536 92.6971 150.651 92.8232C150.768 92.9483 150.868 93.0735 150.953 93.1976L150.728 93.4111C150.654 93.3058 150.58 93.2135 150.506 93.133C150.431 93.0526 150.352 92.9881 150.27 92.9404C150.165 92.8798 150.089 92.8609 150.04 92.8828C149.99 92.9056 149.966 92.9533 149.966 93.0288C149.966 93.0774 149.977 93.1261 150.001 93.1747C150.025 93.2224 150.057 93.2711 150.097 93.3197C150.136 93.3684 150.181 93.42 150.235 93.4727C150.286 93.5253 150.341 93.5809 150.397 93.6355C150.469 93.706 150.538 93.7805 150.61 93.8589C150.68 93.9364 150.744 94.0208 150.801 94.1092C150.86 94.1985 150.907 94.2929 150.942 94.3932C150.978 94.4935 150.995 94.5997 150.995 94.711C150.995 94.8152 150.977 94.9016 150.942 94.9711C150.907 95.0406 150.856 95.0893 150.787 95.1171C150.72 95.1449 150.636 95.1489 150.533 95.129C150.431 95.1102 150.315 95.0625 150.185 94.987ZM147.892 93.6623C147.731 93.569 147.586 93.4598 147.458 93.3316C147.329 93.2026 147.219 93.0536 147.127 92.8828C147.035 92.713 146.965 92.5204 146.915 92.3078C146.866 92.0943 146.841 91.856 146.841 91.5919V89.7945L147.332 90.0775V91.9196C147.332 92.0923 147.346 92.2463 147.373 92.3813C147.4 92.5154 147.438 92.6335 147.487 92.7338C147.537 92.8341 147.595 92.9195 147.664 92.9891C147.731 93.0596 147.808 93.1191 147.892 93.1678C147.977 93.2175 148.055 93.2463 148.125 93.2562C148.197 93.2661 148.257 93.2502 148.308 93.2075C148.359 93.1648 148.398 93.0923 148.426 92.9891C148.455 92.8868 148.469 92.7487 148.469 92.576V90.7349L148.939 91.006V92.8033C148.939 93.0675 148.914 93.278 148.867 93.4349C148.819 93.5918 148.749 93.702 148.657 93.7666C148.565 93.8311 148.456 93.853 148.327 93.8331C148.199 93.8123 148.054 93.7557 147.892 93.6623Z" fill="#EB0752"/>
<path d="M201.857 139.757C201.846 139.757 201.835 139.757 201.824 139.757C202.142 139.157 202.32 138.386 202.32 137.467V135.834C202.32 132.468 199.937 128.336 197.021 126.652L150.395 99.7205C149.848 99.4057 149.321 99.1972 148.825 99.09C148.565 99.0333 148.312 99.0045 148.071 99.0026C148.581 98.0403 149.449 97.513 150.521 97.513C151.231 97.513 152.031 97.7444 152.876 98.232L199.503 125.164C202.417 126.847 204.801 130.978 204.801 134.344V135.978C204.801 138.369 203.598 139.757 201.857 139.757Z" fill="#FFE3A1"/>
<path d="M198.021 140.994C197.696 140.88 197.362 140.724 197.021 140.527C197.362 140.724 197.697 140.88 198.021 140.994ZM200.662 140.946C201.143 140.696 201.54 140.295 201.824 139.757C201.54 140.295 201.143 140.696 200.662 140.946Z" fill="#FDF3DD"/>
<path d="M201.824 139.757C202.142 139.157 202.32 138.386 202.32 137.467C202.32 138.386 202.142 139.157 201.824 139.757Z" fill="#FDF7EA"/>
<path d="M199.375 140.253C198.822 140.253 198.18 140.051 197.517 139.669L150.89 112.737C148.286 111.233 146.086 107.422 146.086 104.415V102.781C146.086 101.854 146.295 101.106 146.687 100.617C146.951 100.288 147.292 100.089 147.706 100.021C147.621 100.405 147.576 100.83 147.576 101.292L147.575 102.926C147.575 106.292 149.961 110.424 152.875 112.107L199.502 139.039C199.934 139.288 200.354 139.47 200.757 139.589C200.466 139.975 200.029 140.253 199.375 140.253Z" fill="#FDF3DD"/>
<path d="M200.757 139.589C200.354 139.47 199.934 139.288 199.503 139.039L152.875 112.107C149.961 110.424 147.576 106.292 147.576 102.926L147.577 101.292C147.577 100.831 147.621 100.406 147.707 100.021C147.813 100.003 147.924 99.9944 148.04 99.9944C148.592 99.9944 149.235 100.197 149.898 100.58L196.526 127.511C199.128 129.015 201.328 132.826 201.328 135.834V137.467C201.328 137.884 201.27 138.905 200.757 139.589ZM202.32 135.834C202.32 132.467 199.936 128.335 197.021 126.652L150.395 99.7203C149.848 99.4056 149.321 99.198 148.824 99.0898C149.321 99.197 149.848 99.4056 150.395 99.7203L197.021 126.652C199.936 128.335 202.32 132.467 202.32 135.834Z" fill="#FDF7EA"/>
<path d="M145.095 104.416V102.781C145.095 100.728 145.982 99.4156 147.335 99.0849C145.982 99.4156 145.095 100.728 145.095 102.781V104.416Z" fill="#FDF3DD"/>
<path d="M199.375 141.247C198.952 141.247 198.497 141.164 198.02 140.994C197.697 140.88 197.362 140.724 197.021 140.528L150.394 113.596C147.479 111.913 145.095 107.782 145.095 104.415V102.781C145.095 100.728 145.981 99.4154 147.334 99.0847C147.557 99.0301 147.793 99.0023 148.04 99.0023C148.05 99.0023 148.061 99.0023 148.071 99.0023C147.913 99.3012 147.79 99.6408 147.706 100.021C147.292 100.089 146.951 100.288 146.687 100.617C146.295 101.106 146.086 101.854 146.086 102.781V104.415C146.086 107.422 148.286 111.233 150.89 112.737L197.517 139.669C198.18 140.051 198.822 140.254 199.375 140.254C200.029 140.254 200.466 139.976 200.757 139.589C201.129 139.698 201.486 139.754 201.824 139.757C201.54 140.295 201.143 140.696 200.662 140.947C200.281 141.143 199.849 141.247 199.375 141.247Z" fill="url(#paint2_linear_8_1140)"/>
<path d="M201.825 139.757C201.488 139.754 201.13 139.699 200.758 139.589C201.271 138.905 201.329 137.884 201.329 137.467V135.834C201.329 132.826 199.129 129.015 196.526 127.511L149.899 100.58C149.236 100.197 148.593 99.9946 148.041 99.9946C147.925 99.9946 147.814 100.004 147.708 100.021C147.791 99.6411 147.914 99.3015 148.072 99.0026C148.313 99.0045 148.565 99.0334 148.825 99.09C149.322 99.1982 149.849 99.4057 150.396 99.7205L197.022 126.652C199.937 128.336 202.32 132.468 202.32 135.834V137.467C202.32 138.386 202.143 139.157 201.825 139.757Z" fill="url(#paint3_linear_8_1140)"/>
<path d="M163.114 132.048C163.269 132.138 163.415 132.133 163.55 132.031V130.91C163.477 130.793 163.406 130.699 163.336 130.629C163.267 130.561 163.196 130.505 163.126 130.464C162.99 130.386 162.876 130.389 162.783 130.472C162.689 130.555 162.644 130.724 162.644 130.979C162.644 131.24 162.684 131.461 162.765 131.643C162.844 131.825 162.961 131.96 163.114 132.048ZM162.995 132.446C162.732 132.294 162.524 132.063 162.37 131.753C162.216 131.444 162.138 131.09 162.138 130.693C162.138 130.496 162.164 130.334 162.213 130.206C162.262 130.078 162.328 129.984 162.41 129.923C162.492 129.863 162.586 129.834 162.692 129.836C162.797 129.839 162.908 129.873 163.021 129.938C163.139 130.007 163.24 130.088 163.321 130.183C163.403 130.278 163.485 130.39 163.568 130.518L163.551 130.122L163.55 129.25L164.038 129.532V132.989L163.635 132.756L163.601 132.477L163.585 132.467C163.508 132.511 163.419 132.535 163.317 132.538C163.215 132.542 163.108 132.511 162.995 132.446ZM160.685 131.052V128.647L161.088 128.88L161.122 129.326L161.138 129.335C161.211 129.222 161.301 129.154 161.406 129.13C161.51 129.107 161.617 129.128 161.727 129.191C161.827 129.249 161.906 129.311 161.965 129.377L161.88 129.818C161.843 129.784 161.81 129.754 161.778 129.73C161.747 129.706 161.709 129.68 161.665 129.654C161.581 129.607 161.495 129.594 161.406 129.614C161.314 129.636 161.237 129.719 161.171 129.865L161.172 131.333L160.685 131.052ZM159.167 129.774C159.319 129.862 159.439 129.859 159.527 129.764C159.615 129.67 159.658 129.501 159.659 129.26C159.659 129.015 159.615 128.794 159.527 128.599C159.44 128.403 159.319 128.261 159.166 128.173C159.015 128.084 158.894 128.088 158.809 128.184C158.723 128.279 158.679 128.45 158.68 128.694C158.679 128.935 158.723 129.154 158.809 129.349C158.894 129.544 159.015 129.686 159.167 129.774ZM159.167 130.234C159.036 130.159 158.913 130.06 158.794 129.936C158.675 129.812 158.57 129.669 158.478 129.508C158.387 129.347 158.313 129.174 158.26 128.985C158.207 128.798 158.18 128.605 158.18 128.406C158.18 128.206 158.207 128.043 158.26 127.918C158.313 127.792 158.386 127.702 158.479 127.647C158.57 127.593 158.676 127.572 158.794 127.583C158.913 127.595 159.036 127.637 159.167 127.713C159.297 127.787 159.421 127.889 159.543 128.015C159.662 128.141 159.768 128.285 159.858 128.445C159.949 128.605 160.022 128.778 160.077 128.967C160.131 129.156 160.159 129.349 160.159 129.549C160.159 129.748 160.131 129.909 160.077 130.035C160.021 130.16 159.949 130.25 159.858 130.305C159.768 130.361 159.662 130.382 159.543 130.368C159.421 130.354 159.296 130.31 159.167 130.234ZM155.471 128.041L154.92 125.319L155.411 125.602L155.661 126.995C155.684 127.123 155.704 127.247 155.719 127.371C155.735 127.494 155.753 127.619 155.773 127.749L155.79 127.759C155.809 127.652 155.829 127.549 155.85 127.447C155.872 127.345 155.895 127.245 155.921 127.145L156.192 126.052L156.637 126.31L156.912 127.718C156.937 127.847 156.962 127.975 156.985 128.102C157.006 128.229 157.03 128.358 157.052 128.488L157.069 128.498C157.089 128.392 157.108 128.287 157.125 128.183C157.141 128.078 157.159 127.975 157.179 127.872L157.429 126.767L157.887 127.032L157.357 129.13L156.776 128.794L156.535 127.534C156.513 127.407 156.491 127.281 156.471 127.157C156.452 127.033 156.431 126.901 156.408 126.761L156.391 126.751C156.371 126.867 156.351 126.976 156.331 127.078C156.312 127.182 156.291 127.283 156.268 127.384L156.031 128.364L155.471 128.041ZM153.839 127.157C153.695 127.073 153.553 126.959 153.413 126.816C153.273 126.671 153.152 126.522 153.05 126.368L153.279 126.138C153.372 126.277 153.466 126.397 153.557 126.496C153.649 126.598 153.749 126.679 153.857 126.741C153.969 126.806 154.052 126.827 154.106 126.804C154.16 126.781 154.186 126.728 154.186 126.642C154.186 126.594 154.175 126.543 154.149 126.491C154.123 126.439 154.089 126.385 154.046 126.332C154.004 126.278 153.956 126.223 153.903 126.168C153.849 126.112 153.795 126.056 153.742 125.999C153.674 125.93 153.605 125.856 153.534 125.776C153.464 125.696 153.4 125.613 153.346 125.525C153.29 125.438 153.244 125.347 153.211 125.254C153.175 125.16 153.157 125.062 153.156 124.96C153.157 124.749 153.225 124.615 153.36 124.56C153.497 124.503 153.681 124.544 153.915 124.679C154.059 124.763 154.189 124.867 154.306 124.992C154.421 125.118 154.521 125.243 154.606 125.367L154.381 125.581C154.308 125.477 154.234 125.383 154.16 125.303C154.084 125.221 154.006 125.157 153.923 125.11C153.819 125.05 153.743 125.031 153.693 125.052C153.643 125.075 153.619 125.123 153.619 125.198C153.619 125.247 153.631 125.296 153.654 125.343C153.678 125.392 153.711 125.441 153.75 125.489C153.789 125.538 153.836 125.59 153.889 125.642C153.939 125.696 153.995 125.75 154.051 125.805C154.122 125.876 154.192 125.95 154.263 126.029C154.333 126.107 154.398 126.191 154.456 126.279C154.514 126.368 154.56 126.463 154.596 126.563C154.631 126.663 154.649 126.769 154.648 126.881C154.649 126.985 154.631 127.071 154.596 127.142C154.56 127.21 154.509 127.259 154.441 127.287C154.373 127.315 154.289 127.319 154.186 127.299C154.084 127.28 153.969 127.232 153.839 127.157ZM151.97 126.077C151.826 125.994 151.684 125.88 151.543 125.736C151.403 125.591 151.283 125.443 151.182 125.289L151.41 125.058C151.503 125.197 151.596 125.317 151.688 125.417C151.779 125.517 151.88 125.599 151.987 125.661C152.1 125.727 152.183 125.748 152.238 125.725C152.291 125.702 152.317 125.648 152.317 125.563C152.317 125.514 152.304 125.464 152.279 125.412C152.255 125.359 152.219 125.306 152.177 125.252C152.136 125.198 152.087 125.143 152.033 125.088C151.98 125.033 151.925 124.976 151.873 124.919C151.804 124.85 151.735 124.776 151.664 124.697C151.594 124.617 151.531 124.533 151.476 124.446C151.421 124.357 151.375 124.267 151.341 124.174C151.305 124.079 151.287 123.982 151.288 123.882C151.287 123.668 151.356 123.535 151.491 123.48C151.626 123.424 151.812 123.464 152.046 123.6C152.19 123.683 152.32 123.787 152.436 123.912C152.552 124.039 152.653 124.164 152.737 124.288L152.513 124.5C152.438 124.396 152.365 124.304 152.291 124.222C152.215 124.142 152.137 124.077 152.054 124.031C151.95 123.97 151.873 123.95 151.824 123.973C151.774 123.995 151.75 124.044 151.75 124.119C151.75 124.168 151.76 124.216 151.785 124.265C151.809 124.312 151.841 124.361 151.881 124.41C151.92 124.459 151.966 124.51 152.019 124.563C152.071 124.616 152.126 124.67 152.181 124.726C152.253 124.796 152.322 124.871 152.394 124.948C152.464 125.027 152.528 125.11 152.586 125.199C152.644 125.289 152.692 125.383 152.726 125.483C152.761 125.584 152.779 125.69 152.779 125.8C152.779 125.905 152.761 125.992 152.726 126.061C152.692 126.13 152.639 126.179 152.571 126.207C152.504 126.235 152.419 126.239 152.317 126.219C152.216 126.199 152.1 126.153 151.97 126.077ZM149.821 124.395C149.905 124.444 149.982 124.466 150.052 124.46C150.121 124.455 150.195 124.432 150.274 124.392V123.854C150.133 123.792 150.014 123.75 149.918 123.727C149.822 123.704 149.744 123.696 149.685 123.703C149.625 123.709 149.583 123.731 149.558 123.769C149.532 123.805 149.52 123.854 149.52 123.912C149.52 124.021 149.547 124.115 149.605 124.196C149.661 124.278 149.734 124.344 149.821 124.395ZM149.664 124.746C149.48 124.639 149.332 124.488 149.218 124.295C149.105 124.1 149.049 123.898 149.049 123.685C149.049 123.558 149.072 123.458 149.119 123.385C149.165 123.313 149.239 123.269 149.34 123.256C149.44 123.241 149.567 123.255 149.722 123.295C149.876 123.335 150.059 123.403 150.274 123.501C150.272 123.438 150.264 123.373 150.251 123.309C150.238 123.245 150.217 123.182 150.187 123.121C150.157 123.059 150.119 123.003 150.071 122.95C150.022 122.899 149.963 122.852 149.892 122.811C149.791 122.753 149.691 122.718 149.594 122.707C149.496 122.697 149.401 122.697 149.308 122.708L149.129 122.228C149.245 122.21 149.376 122.212 149.52 122.233C149.663 122.255 149.819 122.313 149.986 122.409C150.246 122.56 150.44 122.761 150.568 123.013C150.697 123.265 150.761 123.559 150.761 123.896V125.321L150.359 125.088L150.324 124.804L150.308 124.794C150.215 124.832 150.116 124.851 150.01 124.852C149.903 124.853 149.788 124.817 149.664 124.746ZM147.344 121.717L147.706 121.924C148.112 122.16 148.316 122.083 148.316 121.695C148.316 121.492 148.263 121.323 148.156 121.184C148.05 121.047 147.895 120.919 147.689 120.798L147.345 120.601L147.344 121.717ZM146.854 123.063V119.861L147.727 120.365C147.879 120.454 148.021 120.551 148.152 120.66C148.284 120.77 148.398 120.89 148.494 121.024C148.59 121.158 148.665 121.303 148.719 121.46C148.773 121.617 148.8 121.787 148.8 121.974C148.8 122.15 148.773 122.288 148.719 122.388C148.665 122.487 148.591 122.553 148.497 122.585C148.401 122.617 148.289 122.616 148.161 122.582C148.033 122.549 147.893 122.488 147.743 122.402L147.345 122.173V123.347L146.854 123.063Z" fill="#EB0752"/>
<path d="M202.4 169.769C202.672 169.138 202.815 168.382 202.815 167.527V165.894C202.815 162.361 200.327 158.049 197.269 156.283L150.642 129.352C149.862 128.902 149.098 128.644 148.385 128.579C148.904 127.926 149.643 127.574 150.52 127.574C151.231 127.574 152.03 127.804 152.874 128.293L199.502 155.224C202.416 156.907 204.8 161.038 204.801 164.404L204.8 166.038C204.8 168.171 203.842 169.505 202.4 169.769Z" fill="#FFE3A1"/>
<path d="M199.372 170.811C198.737 170.811 198.02 170.592 197.269 170.158L150.642 143.226C147.904 141.645 145.59 137.637 145.59 134.474V132.841C145.59 131.398 146.055 130.334 146.899 129.848C147.183 129.683 147.505 129.589 147.853 129.564C147.673 130.072 147.576 130.672 147.576 131.352V132.986C147.576 136.352 149.961 140.483 152.874 142.167L199.501 169.098C200.126 169.459 200.724 169.678 201.281 169.769C201.079 170.09 200.822 170.343 200.515 170.521C200.178 170.716 199.793 170.811 199.372 170.811Z" fill="#FDF3DD"/>
<path d="M201.281 169.77C200.725 169.678 200.126 169.459 199.502 169.098L152.874 142.167C149.961 140.483 147.576 136.352 147.576 132.986V131.352C147.576 130.672 147.673 130.072 147.853 129.564C147.914 129.559 147.978 129.557 148.041 129.557C148.677 129.557 149.394 129.776 150.146 130.211L196.773 157.142C199.511 158.723 201.823 162.731 201.823 165.894V167.527C201.823 168.445 201.636 169.208 201.281 169.77Z" fill="#FDF7EA"/>
<path d="M199.376 171.805C198.565 171.805 197.68 171.541 196.773 171.016L150.145 144.085C147.087 142.319 144.599 138.007 144.599 134.474V132.84C144.599 131.028 145.239 129.66 146.402 128.987C146.894 128.704 147.446 128.563 148.038 128.563C148.152 128.563 148.267 128.568 148.384 128.578C148.166 128.854 147.986 129.184 147.852 129.563C147.505 129.588 147.183 129.682 146.899 129.847C146.055 130.334 145.59 131.397 145.59 132.84V134.474C145.59 137.637 147.904 141.644 150.642 143.225L197.269 170.157C198.02 170.591 198.737 170.811 199.372 170.811C199.793 170.811 200.178 170.715 200.515 170.521C200.821 170.343 201.078 170.09 201.281 169.769C201.478 169.801 201.67 169.817 201.856 169.817C202.043 169.817 202.225 169.8 202.4 169.768C202.094 170.475 201.625 171.025 201.01 171.38C200.519 171.664 199.968 171.805 199.376 171.805Z" fill="url(#paint4_linear_8_1140)"/>
<path d="M201.856 169.817C201.671 169.817 201.479 169.802 201.282 169.77C201.636 169.209 201.824 168.445 201.824 167.527V165.894C201.824 162.731 199.511 158.723 196.773 157.142L150.146 130.211C149.395 129.777 148.677 129.557 148.042 129.557C147.978 129.557 147.915 129.559 147.853 129.564C147.987 129.185 148.167 128.855 148.385 128.579C149.099 128.643 149.862 128.902 150.642 129.351L197.27 156.283C200.327 158.049 202.815 162.361 202.815 165.894V167.527C202.815 168.382 202.672 169.138 202.4 169.769C202.226 169.801 202.044 169.817 201.856 169.817Z" fill="url(#paint5_linear_8_1140)"/>
<path d="M170.155 172.018C170.155 174.702 167.736 175.501 164.779 173.793L151.449 166.094C148.492 164.386 146.072 160.792 146.073 158.109C146.073 155.425 148.492 154.626 151.448 156.334L164.779 164.034C167.736 165.741 170.155 169.335 170.155 172.018Z" fill="#FF4964"/>
<path d="M197.634 191.934C197.9 191.511 198.047 190.964 198.047 190.303C198.047 187.62 195.627 184.026 192.67 182.319L179.341 174.619C178.286 174.01 177.301 173.719 176.469 173.719C176.425 173.719 176.382 173.72 176.339 173.722C176.768 173.04 177.504 172.679 178.431 172.679C179.264 172.679 180.25 172.97 181.304 173.578L194.634 181.278C197.591 182.985 200.011 186.579 200.011 189.262C200.01 190.94 199.065 191.881 197.634 191.934Z" fill="#FFE3A1"/>
<path d="M151.383 164.658V161.409L151.882 161.697V164.459L153.053 165.135V165.622L151.383 164.658Z" fill="white"/>
<path d="M154.351 165.965C154.505 166.053 154.627 166.049 154.716 165.954C154.805 165.859 154.85 165.688 154.85 165.443C154.85 165.194 154.805 164.971 154.716 164.772C154.627 164.573 154.505 164.429 154.351 164.339C154.195 164.25 154.075 164.254 153.988 164.351C153.9 164.448 153.857 164.62 153.857 164.869C153.857 165.114 153.9 165.336 153.988 165.534C154.075 165.731 154.196 165.875 154.351 165.965ZM154.351 166.432C154.219 166.355 154.093 166.254 153.973 166.129C153.852 166.003 153.746 165.858 153.652 165.696C153.559 165.532 153.485 165.355 153.43 165.165C153.376 164.975 153.35 164.778 153.35 164.576C153.35 164.374 153.376 164.209 153.43 164.081C153.485 163.954 153.559 163.862 153.652 163.807C153.746 163.751 153.853 163.73 153.973 163.74C154.093 163.752 154.219 163.797 154.351 163.873C154.483 163.949 154.61 164.051 154.731 164.178C154.853 164.308 154.961 164.453 155.053 164.615C155.143 164.777 155.218 164.955 155.273 165.146C155.33 165.337 155.358 165.534 155.358 165.736C155.358 165.938 155.33 166.103 155.273 166.229C155.218 166.355 155.143 166.448 155.053 166.504C154.961 166.56 154.853 166.582 154.732 166.567C154.609 166.553 154.483 166.508 154.351 166.432Z" fill="white"/>
<path d="M156.652 166.568C156.754 166.626 156.838 166.633 156.91 166.591C156.982 166.547 157.018 166.447 157.018 166.287C157.018 166.135 156.983 165.996 156.913 165.872C156.843 165.746 156.756 165.654 156.652 165.595C156.549 165.535 156.462 165.526 156.39 165.567C156.318 165.607 156.282 165.707 156.283 165.863C156.283 166.022 156.318 166.164 156.39 166.29C156.462 166.416 156.549 166.509 156.652 166.568ZM156.704 168.437C156.877 168.536 157.014 168.577 157.119 168.559C157.223 168.542 157.276 168.479 157.276 168.374C157.276 168.278 157.243 168.195 157.179 168.125C157.115 168.054 157.023 167.985 156.902 167.915L156.614 167.748C156.498 167.682 156.402 167.615 156.325 167.547C156.217 167.581 156.162 167.656 156.162 167.776C156.162 167.885 156.21 167.998 156.307 168.115C156.402 168.231 156.534 168.339 156.704 168.437ZM156.627 168.764C156.5 168.691 156.383 168.61 156.276 168.522C156.168 168.434 156.076 168.34 155.998 168.242C155.921 168.145 155.86 168.043 155.816 167.938C155.772 167.833 155.749 167.728 155.749 167.621C155.749 167.519 155.775 167.439 155.826 167.381C155.878 167.322 155.953 167.287 156.051 167.274V167.254C155.995 167.182 155.951 167.104 155.915 167.017C155.878 166.929 155.861 166.836 155.861 166.737C155.861 166.641 155.884 166.568 155.932 166.517C155.979 166.467 156.033 166.435 156.093 166.42V166.4C156.021 166.295 155.957 166.17 155.901 166.027C155.845 165.884 155.818 165.74 155.818 165.595C155.818 165.455 155.84 165.344 155.887 165.261C155.933 165.178 155.993 165.122 156.07 165.091C156.145 165.059 156.233 165.055 156.335 165.075C156.434 165.095 156.541 165.138 156.652 165.202C156.71 165.235 156.765 165.273 156.818 165.314C156.872 165.357 156.918 165.399 156.962 165.441L157.719 165.878V166.301L157.332 166.076C157.366 166.143 157.395 166.217 157.418 166.303C157.441 166.387 157.452 166.471 157.453 166.558C157.452 166.695 157.432 166.801 157.39 166.879C157.348 166.959 157.292 167.012 157.22 167.04C157.149 167.068 157.064 167.072 156.967 167.052C156.869 167.032 156.765 166.991 156.652 166.926C156.607 166.899 156.559 166.868 156.509 166.828C156.462 166.791 156.412 166.745 156.364 166.695C156.333 166.71 156.308 166.729 156.289 166.751C156.27 166.773 156.26 166.812 156.26 166.869C156.26 166.938 156.286 167.007 156.336 167.076C156.386 167.145 156.476 167.216 156.606 167.292L156.979 167.507C157.235 167.654 157.428 167.813 157.558 167.983C157.688 168.153 157.753 168.344 157.753 168.556C157.753 168.675 157.726 168.772 157.674 168.848C157.621 168.923 157.546 168.971 157.448 168.991C157.351 169.01 157.232 169.002 157.093 168.966C156.954 168.931 156.798 168.864 156.627 168.764Z" fill="white"/>
<path d="M158.171 168.578V166.139L158.665 166.424L158.664 168.864L158.171 168.578ZM158.419 165.855C158.331 165.805 158.258 165.732 158.201 165.64C158.143 165.547 158.114 165.453 158.114 165.357C158.114 165.26 158.143 165.199 158.201 165.17C158.258 165.142 158.331 165.153 158.42 165.204C158.508 165.257 158.582 165.329 158.638 165.423C158.696 165.518 158.725 165.613 158.725 165.709C158.725 165.806 158.696 165.866 158.638 165.893C158.582 165.919 158.508 165.907 158.419 165.855Z" fill="white"/>
<path d="M159.34 169.254V166.814L159.749 167.05L159.783 167.398L159.801 167.408C159.895 167.356 159.997 167.325 160.109 167.313C160.219 167.3 160.347 167.336 160.493 167.421C160.719 167.551 160.884 167.73 160.988 167.957C161.091 168.184 161.143 168.454 161.143 168.765V170.295L160.648 170.009V168.553C160.648 168.351 160.622 168.195 160.57 168.081C160.518 167.968 160.434 167.879 160.316 167.81C160.226 167.758 160.143 167.737 160.074 167.747C160.003 167.759 159.924 167.787 159.835 167.836L159.836 169.539L159.34 169.254Z" fill="white"/>
<path d="M195.543 192.978C194.71 192.978 193.725 192.687 192.67 192.078L179.34 184.378C176.383 182.671 173.963 179.077 173.964 176.394C173.964 174.717 174.909 173.776 176.339 173.723C176.074 174.146 175.927 174.692 175.927 175.353C175.926 178.036 178.347 181.63 181.304 183.338L194.634 191.037C195.688 191.646 196.674 191.936 197.506 191.936C197.549 191.936 197.593 191.936 197.635 191.934C197.207 192.616 196.47 192.978 195.543 192.978Z" fill="#FFE3A1"/>
<path d="M197.506 191.936C196.673 191.936 195.688 191.646 194.634 191.037L181.304 183.338C178.347 181.63 175.926 178.036 175.927 175.353C175.927 174.692 176.074 174.145 176.339 173.722C176.381 173.72 176.425 173.719 176.469 173.719C177.301 173.719 178.286 174.01 179.34 174.619L192.67 182.319C195.627 184.026 198.047 187.62 198.047 190.303C198.047 190.964 197.9 191.511 197.634 191.934C197.592 191.936 197.549 191.936 197.506 191.936Z" fill="#FFEEC7"/>
<path d="M179.925 181.202C179.735 181.093 179.552 180.946 179.377 180.761C179.199 180.578 179.044 180.369 178.909 180.139L179.201 179.915C179.301 180.083 179.416 180.237 179.546 180.381C179.674 180.523 179.803 180.631 179.932 180.706C180.093 180.799 180.215 180.831 180.299 180.802C180.381 180.774 180.423 180.698 180.423 180.572C180.423 180.505 180.413 180.443 180.391 180.384C180.369 180.325 180.338 180.267 180.301 180.21C180.262 180.154 180.216 180.094 180.163 180.033C180.11 179.973 180.052 179.909 179.988 179.843L179.602 179.426C179.533 179.353 179.465 179.273 179.398 179.183C179.33 179.096 179.269 179.001 179.214 178.899C179.16 178.799 179.116 178.692 179.084 178.581C179.05 178.468 179.033 178.352 179.033 178.233C179.034 178.104 179.057 177.999 179.106 177.914C179.152 177.831 179.217 177.771 179.3 177.736C179.384 177.703 179.483 177.695 179.599 177.715C179.715 177.737 179.842 177.786 179.98 177.866C180.144 177.961 180.301 178.088 180.454 178.251C180.605 178.414 180.735 178.59 180.845 178.777L180.591 178.999C180.498 178.859 180.404 178.738 180.307 178.631C180.21 178.525 180.1 178.438 179.98 178.368C179.846 178.291 179.738 178.263 179.658 178.284C179.577 178.305 179.536 178.375 179.536 178.494C179.536 178.558 179.549 178.618 179.573 178.678C179.597 178.737 179.631 178.794 179.673 178.854C179.714 178.912 179.762 178.971 179.817 179.031C179.871 179.091 179.927 179.15 179.984 179.21L180.367 179.614C180.451 179.703 180.526 179.793 180.595 179.885C180.664 179.979 180.724 180.074 180.774 180.173C180.824 180.272 180.863 180.374 180.892 180.482C180.921 180.59 180.935 180.703 180.935 180.822C180.935 180.955 180.912 181.065 180.866 181.156C180.82 181.244 180.753 181.308 180.666 181.345C180.579 181.381 180.472 181.391 180.347 181.37C180.223 181.349 180.081 181.294 179.925 181.202Z" fill="#FF4964"/>
<path d="M181.446 182.022L181.447 179.583L181.941 179.869V182.308L181.446 182.022ZM181.696 179.3C181.608 179.248 181.534 179.176 181.476 179.083C181.419 178.991 181.39 178.897 181.39 178.8C181.39 178.704 181.419 178.642 181.477 178.615C181.534 178.585 181.608 178.598 181.696 178.648C181.785 178.7 181.858 178.773 181.915 178.868C181.973 178.962 182.001 179.057 182.001 179.154C182.001 179.25 181.973 179.311 181.915 179.337C181.858 179.362 181.785 179.351 181.696 179.3Z" fill="#FF4964"/>
<path d="M183.377 182.004C183.477 182.063 183.563 182.07 183.635 182.026C183.707 181.984 183.743 181.882 183.743 181.723C183.743 181.571 183.708 181.432 183.637 181.307C183.567 181.183 183.48 181.09 183.377 181.031C183.274 180.971 183.185 180.962 183.114 181.003C183.043 181.044 183.007 181.143 183.007 181.299C183.007 181.458 183.043 181.601 183.114 181.726C183.186 181.852 183.274 181.945 183.377 182.004ZM183.428 183.873C183.6 183.973 183.739 184.013 183.843 183.995C183.949 183.978 184.001 183.917 184.001 183.811C184 183.714 183.968 183.632 183.904 183.56C183.839 183.49 183.747 183.42 183.626 183.351L183.337 183.184C183.224 183.119 183.128 183.051 183.05 182.983C182.941 183.016 182.887 183.093 182.887 183.212C182.887 183.321 182.934 183.434 183.03 183.551C183.127 183.668 183.26 183.776 183.428 183.873ZM183.351 184.2C183.225 184.127 183.108 184.047 183.001 183.958C182.893 183.869 182.8 183.777 182.724 183.679C182.645 183.58 182.585 183.48 182.54 183.375C182.495 183.269 182.474 183.163 182.474 183.058C182.474 182.956 182.499 182.874 182.551 182.818C182.603 182.759 182.677 182.722 182.775 182.71V182.691C182.721 182.619 182.674 182.54 182.639 182.453C182.604 182.366 182.585 182.272 182.586 182.174C182.585 182.077 182.61 182.004 182.657 181.954C182.704 181.903 182.757 181.87 182.818 181.855V181.836C182.747 181.731 182.682 181.607 182.626 181.464C182.571 181.32 182.543 181.177 182.543 181.03C182.543 180.892 182.566 180.781 182.612 180.698C182.657 180.615 182.719 180.559 182.794 180.528C182.871 180.497 182.958 180.492 183.058 180.511C183.158 180.532 183.265 180.574 183.377 180.638C183.434 180.672 183.489 180.708 183.543 180.75C183.595 180.794 183.644 180.836 183.686 180.877L184.444 181.314V181.736L184.057 181.513C184.09 181.578 184.12 181.655 184.143 181.738C184.165 181.823 184.178 181.909 184.178 181.995C184.178 182.131 184.156 182.238 184.114 182.316C184.073 182.396 184.016 182.448 183.945 182.477C183.872 182.504 183.788 182.509 183.69 182.489C183.593 182.469 183.488 182.427 183.377 182.363C183.331 182.336 183.285 182.304 183.235 182.265C183.186 182.227 183.138 182.182 183.089 182.131C183.057 182.146 183.031 182.165 183.014 182.187C182.995 182.21 182.986 182.249 182.986 182.305C182.986 182.375 183.011 182.443 183.06 182.513C183.111 182.581 183.2 182.653 183.329 182.727L183.703 182.944C183.958 183.091 184.152 183.25 184.282 183.418C184.412 183.589 184.478 183.78 184.478 183.992C184.478 184.112 184.451 184.209 184.398 184.284C184.346 184.359 184.27 184.406 184.172 184.426C184.075 184.446 183.956 184.438 183.817 184.403C183.679 184.368 183.524 184.299 183.351 184.2Z" fill="#FF4964"/>
<path d="M184.896 184.014V181.576L185.304 181.811L185.339 182.159L185.356 182.168C185.45 182.118 185.553 182.085 185.663 182.073C185.773 182.06 185.903 182.097 186.048 182.181C186.275 182.312 186.44 182.49 186.543 182.719C186.646 182.944 186.698 183.214 186.698 183.525V185.055L186.203 184.77V183.314C186.203 183.112 186.177 182.956 186.126 182.842C186.073 182.729 185.989 182.639 185.872 182.572C185.78 182.518 185.699 182.498 185.63 182.507C185.559 182.519 185.48 182.548 185.389 182.596L185.39 184.299L184.896 184.014Z" fill="#FF4964"/>
<path d="M189.347 186.645C189.184 186.55 189.037 186.438 188.906 186.309C188.775 186.178 188.665 186.027 188.571 185.853C188.477 185.68 188.406 185.486 188.355 185.27C188.306 185.054 188.28 184.812 188.281 184.543V182.72L188.779 183.008V184.876C188.779 185.051 188.793 185.208 188.821 185.345C188.848 185.482 188.886 185.6 188.937 185.702C188.987 185.804 189.045 185.891 189.116 185.962C189.184 186.033 189.261 186.094 189.346 186.142C189.433 186.193 189.512 186.223 189.583 186.233C189.656 186.243 189.717 186.226 189.769 186.183C189.82 186.139 189.861 186.067 189.89 185.962C189.918 185.858 189.932 185.717 189.933 185.541L189.932 183.674L190.409 183.95L190.41 185.774C190.409 186.041 190.385 186.255 190.337 186.414C190.288 186.573 190.217 186.685 190.123 186.75C190.03 186.817 189.919 186.838 189.788 186.817C189.658 186.798 189.511 186.739 189.347 186.645Z" fill="#FF4964"/>
<path d="M192.031 187.723C192.172 187.805 192.289 187.802 192.383 187.716C192.479 187.63 192.525 187.448 192.525 187.169C192.525 186.925 192.491 186.714 192.419 186.537C192.347 186.359 192.231 186.224 192.07 186.132C191.921 186.045 191.766 186.047 191.605 186.137V187.274C191.683 187.396 191.757 187.49 191.829 187.562C191.901 187.634 191.967 187.687 192.031 187.723ZM191.111 188.569V185.164L191.52 185.401L191.554 185.679L191.571 185.689C191.66 185.654 191.759 185.637 191.867 185.637C191.977 185.637 192.09 185.671 192.207 185.738C192.34 185.815 192.457 185.912 192.558 186.027C192.66 186.145 192.747 186.278 192.818 186.429C192.89 186.579 192.944 186.742 192.982 186.916C193.02 187.091 193.038 187.272 193.038 187.46C193.038 187.669 193.013 187.841 192.962 187.976C192.912 188.111 192.846 188.21 192.763 188.274C192.679 188.335 192.583 188.365 192.474 188.362C192.366 188.359 192.252 188.323 192.134 188.255C192.043 188.202 191.951 188.126 191.86 188.026C191.767 187.928 191.679 187.811 191.593 187.674L191.605 188.089V188.854L191.111 188.569Z" fill="#FF4964"/>
<path d="M145.496 156.794C145.496 156.794 145.614 156.744 145.835 156.651C145.946 156.606 146.096 156.583 146.266 156.54C146.439 156.513 146.643 156.494 146.869 156.494C147.324 156.499 147.869 156.602 148.471 156.8C149.071 157.006 149.703 157.35 150.369 157.725C151.709 158.475 153.283 159.332 154.951 160.284C156.617 161.236 158.397 162.25 160.176 163.265C161.059 163.781 161.944 164.298 162.814 164.807C163.693 165.308 164.525 165.938 165.208 166.625C166.598 168.001 167.555 169.602 168.049 171.081C168.298 171.823 168.409 172.538 168.383 173.184C168.362 173.805 168.185 174.375 167.935 174.752C167.685 175.143 167.368 175.335 167.168 175.462C166.948 175.559 166.83 175.611 166.83 175.611C166.83 175.611 166.944 175.551 167.155 175.439C167.346 175.299 167.632 175.086 167.853 174.701C168.073 174.313 168.209 173.802 168.198 173.174C168.187 172.57 168.043 171.88 167.786 171.173C167.268 169.752 166.26 168.249 164.909 166.934C164.227 166.268 163.46 165.697 162.583 165.208C161.708 164.708 160.817 164.201 159.929 163.694C158.161 162.66 156.393 161.626 154.736 160.656C153.078 159.688 151.549 158.752 150.229 157.966C149.567 157.571 148.978 157.205 148.406 156.972C147.834 156.748 147.308 156.618 146.865 156.59C146.646 156.579 146.445 156.585 146.275 156.597C146.107 156.629 145.959 156.64 145.844 156.676C145.617 156.753 145.496 156.794 145.496 156.794Z" fill="white"/>
<path d="M175.249 173.979C175.249 173.979 175.367 173.929 175.588 173.836C175.7 173.791 175.849 173.768 176.019 173.724C176.193 173.698 176.396 173.679 176.622 173.679C177.076 173.684 177.623 173.787 178.225 173.985C178.823 174.19 179.457 174.535 180.122 174.91C181.462 175.66 183.036 176.517 184.704 177.469C186.371 178.42 188.15 179.434 189.93 180.449C190.813 180.966 191.698 181.483 192.567 181.991C193.447 182.492 194.279 183.123 194.962 183.81C196.351 185.186 197.308 186.786 197.803 188.265C198.051 189.008 198.162 189.723 198.136 190.368C198.116 190.99 197.938 191.559 197.689 191.936C197.439 192.328 197.122 192.519 196.922 192.646C196.702 192.744 196.583 192.795 196.583 192.795C196.583 192.795 196.697 192.736 196.908 192.624C197.1 192.484 197.386 192.27 197.607 191.886C197.827 191.498 197.962 190.986 197.952 190.359C197.94 189.754 197.797 189.065 197.539 188.357C197.021 186.937 196.014 185.433 194.663 184.117C193.981 183.453 193.213 182.882 192.336 182.393C191.46 181.893 190.571 181.386 189.682 180.878C187.914 179.844 186.146 178.811 184.489 177.84C182.832 176.872 181.303 175.937 179.983 175.15C179.321 174.754 178.731 174.39 178.159 174.156C177.587 173.933 177.061 173.803 176.618 173.775C176.398 173.764 176.199 173.77 176.028 173.782C175.86 173.814 175.713 173.825 175.597 173.86C175.37 173.938 175.249 173.979 175.249 173.979Z" fill="white"/>
<g filter="url(#filter2_d_8_1140)">
<path d="M112.409 269.19C106.394 269.19 100.381 267.866 95.7923 265.216C87.3759 260.355 86.6781 252.724 93.6979 247.401C93.8458 247.513 93.9927 247.618 94.1416 247.717V249.618C93.3435 250.08 93.2334 253.67 93.7287 254.498C94.0443 255.024 96.6996 255.617 99.0173 255.617C100.342 255.617 101.557 255.422 102.159 254.911C103.812 253.505 105.3 249.536 105.795 247.137C106.029 246.004 106.19 244.059 105.875 242.575C108.007 242.22 110.209 242.042 112.412 242.042C112.451 242.042 112.491 242.042 112.531 242.042C112.705 246.081 113.299 255.836 113.898 256.731C114.145 256.984 114.419 257.2 114.713 257.38L114.557 258.632C113.448 259.272 113.576 263.767 113.908 264.512C114.153 265.064 117.545 265.652 119.74 265.652C120.505 265.652 121.124 265.581 121.416 265.412C122.287 264.909 124.463 263.634 124.285 262.266C124.907 261.954 128.079 261.127 129.764 258.88C130.756 257.557 132.987 252.762 131.83 251.521C131.577 251.25 131.151 251.137 130.608 251.137C128.917 251.137 126.091 252.239 123.848 253.078C123.877 251.936 123.892 250.577 123.892 249.152C123.892 247.349 123.869 245.442 123.817 243.744C125.685 244.343 127.443 245.1 129.029 246.016C138.206 251.32 138.205 259.914 129.028 265.214C124.439 267.866 118.424 269.19 112.409 269.19Z" fill="#B2D0EC"/>
</g>
<path d="M94.1421 246.475V249.617C93.344 250.079 93.2338 253.67 93.7291 254.497C94.2254 255.324 100.506 256.316 102.159 254.91C103.812 253.505 105.3 249.536 105.795 247.137C106.292 244.738 106.457 238.705 102.49 241.102C98.5225 243.498 94.1421 246.475 94.1421 246.475Z" fill="#15156B"/>
<path d="M102.767 248.431V249.947C102.767 249.947 97.7205 251.686 94.1421 249.617V246.475L102.767 248.431Z" fill="#E6E6E6"/>
<path d="M114.888 255.985L114.557 258.631C113.448 259.271 113.576 263.767 113.908 264.511C114.238 265.255 120.285 266.064 121.416 265.411C122.288 264.909 124.463 263.633 124.286 262.265C124.907 261.953 128.079 261.126 129.764 258.879C130.757 257.556 132.987 252.761 131.831 251.52C130.673 250.279 125.9 252.347 122.914 253.421C119.928 254.497 114.888 255.985 114.888 255.985Z" fill="#15156B"/>
<path d="M122.915 256.875V258.18C122.915 258.18 121.086 259.458 119.185 259.458C117.284 259.458 114.558 258.63 114.558 258.63L114.888 255.985L122.915 256.875Z" fill="#E6E6E6"/>
<path d="M116.962 257.065C116.092 257.065 115.078 256.96 113.899 256.73C113.3 255.836 112.705 246.08 112.532 242.041C112.513 241.599 112.499 241.224 112.491 240.938C112.412 238.041 110.507 222.663 109.932 219.77C109.351 216.877 106.292 196.369 105.796 196.29L103.842 190.016C103.842 190.016 103.262 208.19 103.182 212.254C103.098 216.312 102.269 228.134 102.105 232.267C101.942 236.404 101.526 241.529 101.774 243.597C101.964 245.188 101.128 248.06 97.4737 248.06C96.3898 248.06 95.0577 247.807 93.4328 247.193L93.4228 247.188C93.3037 247.089 93.1896 246.995 93.0714 246.891C92.4908 245.403 92.6545 231.761 92.6545 225.64C92.6545 219.523 92.4064 212.576 91.9945 209.764C91.6421 207.354 90.982 191.976 90.8549 184.68C90.8529 184.564 90.851 184.45 90.849 184.338C90.847 184.222 90.846 184.107 90.844 183.996C90.8321 183.099 90.8301 182.356 90.839 181.818C90.9185 177.105 91.6629 173.057 91.6629 173.057C91.6629 173.057 91.6629 173.056 91.6639 173.055C93.7742 175.712 101.968 179.216 107.794 180.494C109.229 180.81 110.518 180.99 111.538 180.99C111.924 180.99 112.273 180.964 112.575 180.91C112.722 180.935 112.883 180.945 113.055 180.945C113.671 180.945 114.435 180.81 115.237 180.674C116.039 180.538 116.879 180.402 117.654 180.402C119.17 180.402 120.427 180.924 120.618 182.988C121.035 187.454 121.446 212.506 121.446 215.567C121.446 218.624 121.778 247.163 122.026 250.632C122.238 253.583 121.984 257.065 116.962 257.065Z" fill="url(#paint6_linear_8_1140)"/>
<path d="M117.956 258.179C116.434 258.179 114.929 257.791 113.898 256.729C115.077 256.959 116.092 257.064 116.961 257.064C121.984 257.064 122.237 253.582 122.026 250.631C121.777 247.163 121.446 218.623 121.446 215.567C121.446 212.505 121.034 187.453 120.617 182.987C120.426 180.923 119.17 180.402 117.653 180.402C116.879 180.402 116.038 180.538 115.236 180.673C114.434 180.809 113.671 180.944 113.054 180.944C112.882 180.944 112.722 180.934 112.575 180.909C117.116 180.081 122.244 175.452 122.407 174.54C122.407 177.685 122.903 188.847 123.236 198.436C123.474 205.31 123.668 211.166 123.668 215.364C123.668 217.021 123.638 218.42 123.567 219.521C123.481 220.879 123.444 223.409 123.444 226.329C123.444 231.759 123.57 238.531 123.731 241.597C123.842 243.696 123.893 246.532 123.893 249.151C123.893 252.412 123.813 255.334 123.667 256.069C123.495 256.918 120.698 258.179 117.956 258.179Z" fill="url(#paint7_linear_8_1140)"/>
<path d="M90.6435 160.375C88.8657 158.799 86.9787 156.65 86.4556 154.036C86.1876 152.692 86.5737 139.793 87.8284 132.927C87.5396 134.711 87.3768 136.943 87.2835 139.733C87.2328 141.278 87.3232 142.873 87.5048 144.467C87.3956 146.783 88.8498 156.941 88.9074 158.637C89.5377 159.296 90.1938 159.923 90.6395 160.339C90.6415 160.351 90.6425 160.363 90.6435 160.375ZM88.4409 130.34C88.5689 129.945 88.7029 129.611 88.8429 129.346L88.8439 129.349C88.697 129.653 88.5629 129.982 88.4409 130.34Z" fill="url(#paint8_linear_8_1140)"/>
<path d="M90.6381 160.339C90.1924 159.923 89.5363 159.296 88.906 158.637C88.8484 156.941 87.3942 146.783 87.5034 144.467C88.1943 150.552 90.1973 156.63 90.5904 159.905C90.6073 160.046 90.6232 160.191 90.6381 160.339Z" fill="url(#paint9_linear_8_1140)"/>
<path d="M107.793 180.494C101.968 179.216 93.7737 175.712 91.6634 173.055C91.5284 172.885 91.4182 172.718 91.3348 172.555C90.9338 171.122 91.0758 164.553 90.643 160.375C90.642 160.363 90.641 160.351 90.639 160.339C90.6241 160.191 90.6082 160.046 90.5914 159.905C90.1983 156.63 88.1952 150.553 87.5043 144.468C87.3227 142.874 87.2324 141.278 87.283 139.734C87.3763 136.944 87.5391 134.711 87.8279 132.928C87.9897 131.932 88.1902 131.076 88.4404 130.341C88.5625 129.982 88.6965 129.654 88.8434 129.35C89.293 128.419 89.8648 127.74 90.5914 127.247C91.7468 126.46 94.3842 126.244 96.961 126.244C99.1765 126.244 101.346 126.404 102.49 126.501C102.49 127.281 102.49 128.116 102.49 128.897L102.386 128.875L102.428 128.986C102.525 129.228 102.657 129.451 102.815 129.655C102.975 129.856 103.161 130.033 103.355 130.199C103.751 130.52 104.191 130.782 104.648 130.998C105.104 131.219 105.576 131.401 106.055 131.559C106.535 131.718 107.02 131.855 107.511 131.971C108.001 132.09 108.494 132.192 108.989 132.283L109.732 132.42C109.858 132.441 109.985 132.451 110.112 132.452C110.13 132.453 110.148 132.453 110.167 132.453C110.275 132.453 110.384 132.446 110.492 132.437C110.745 132.413 110.995 132.367 111.24 132.305C111.484 132.243 111.724 132.162 111.957 132.067C112.191 131.97 112.418 131.857 112.627 131.715C112.731 131.643 112.829 131.562 112.913 131.468C112.976 131.399 113.03 131.317 113.055 131.228C113.064 131.196 113.069 131.164 113.069 131.132V129.958C115.339 132.265 122.684 140.634 122.987 142.294C123.153 143.204 123.236 145.581 123.235 148.248C122.296 147.199 121.218 146.817 120.145 146.817C117.252 146.817 114.395 149.596 114.395 149.596C115.581 153.793 119.228 165.129 119.283 167.982C119.338 170.833 119.03 180.344 107.793 180.494ZM122.641 159.939C122.283 158.995 122.773 155.948 123.142 153.187C123.103 154.192 123.051 155.132 122.987 155.936C122.888 157.142 122.765 158.535 122.641 159.939Z" fill="url(#paint10_linear_8_1140)"/>
<path d="M113.069 125.509C113.069 125.509 113.069 130.471 113.069 131.132C113.069 131.793 110.92 132.621 109.68 132.372C108.441 132.124 103.399 131.343 102.49 128.963C102.49 126.419 102.49 123.277 102.49 123.277L113.069 125.509Z" fill="#FFB798"/>
<path d="M112.905 131.461C112.82 131.552 112.718 131.628 112.614 131.697C112.405 131.834 112.176 131.942 111.944 132.033C111.71 132.123 111.471 132.198 111.226 132.253C110.983 132.311 110.735 132.351 110.486 132.37C110.363 132.379 110.238 132.384 110.114 132.38C109.99 132.377 109.866 132.367 109.745 132.345L109.005 132.199C108.513 132.1 108.021 131.993 107.536 131.869C107.05 131.745 106.566 131.61 106.092 131.449C105.617 131.29 105.151 131.107 104.701 130.889C104.251 130.672 103.821 130.413 103.437 130.099C103.249 129.939 103.07 129.767 102.918 129.573C102.794 129.41 102.684 129.237 102.6 129.052H102.599L102.572 128.991L102.55 128.941L102.534 128.907L102.502 128.9L102.385 128.875L102.428 128.986C102.524 129.228 102.656 129.451 102.815 129.655C102.975 129.856 103.16 130.033 103.355 130.199C103.751 130.52 104.191 130.782 104.647 130.998C105.104 131.219 105.576 131.401 106.055 131.559C106.534 131.718 107.02 131.855 107.51 131.971C108 132.089 108.494 132.192 108.988 132.283L109.732 132.42C109.858 132.441 109.985 132.451 110.112 132.452C110.239 132.455 110.366 132.448 110.492 132.437C110.745 132.413 110.994 132.367 111.239 132.305C111.484 132.242 111.724 132.162 111.957 132.067C112.19 131.97 112.418 131.857 112.627 131.715C112.73 131.643 112.829 131.562 112.913 131.468C112.996 131.376 113.067 131.259 113.069 131.132C113.063 131.259 112.99 131.372 112.905 131.461Z" fill="white"/>
<path d="M113.07 131.131C113.07 131.131 110.322 130.237 109.765 128.275L113.07 128.963C113.07 129.972 113.07 130.875 113.07 131.131Z" fill="#F59371"/>
<path d="M117.442 109.388C117.713 111.876 118.006 116.929 117.843 120.398C117.678 123.869 116.241 128.676 115.569 129.134C114.897 129.592 112.412 129.826 110.117 129.005C107.821 128.185 103.252 125.595 103.252 125.595C103.252 125.595 103.297 116.746 106.988 114.435C110.68 112.123 117.442 109.388 117.442 109.388Z" fill="#FFC19F"/>
<path d="M119.378 106.308C119.685 108.945 118.085 110.561 115.229 112.065C110.855 114.37 108.878 118.45 108.908 120.683C108.938 122.918 109.085 127.184 106.481 128.919C104.902 129.273 100.416 127.776 99.7534 126.753C99.0903 125.73 95.626 119.516 95.9635 115.719C96.301 111.923 97.3234 107.259 99.5082 105.738C101.694 104.218 110.581 102.502 114.775 103.289C117.648 103.826 119.208 104.846 119.378 106.308Z" fill="#15156B"/>
<path d="M110.611 120.476C110.611 120.476 109.179 116.389 107.113 117.994C105.047 119.6 107.772 125.185 109.321 124.168C110.869 123.148 110.611 120.476 110.611 120.476Z" fill="#FFC19F"/>
<path d="M123.143 153.188C123.203 151.612 123.235 149.876 123.235 148.248C123.677 148.74 123.453 150.862 123.143 153.188Z" fill="url(#paint11_linear_8_1140)"/>
<path d="M111.538 180.989C110.517 180.989 109.229 180.809 107.793 180.493C119.03 180.343 119.337 170.833 119.283 167.981C119.228 165.128 115.58 153.792 114.395 149.595C114.395 149.595 117.252 146.816 120.144 146.816C121.217 146.816 122.295 147.199 123.234 148.247C123.234 149.875 123.203 151.611 123.142 153.187C122.773 155.947 122.283 158.994 122.641 159.938C122.387 162.847 122.135 165.798 122.134 167.232C122.134 167.485 122.142 167.692 122.159 167.842C122.288 168.92 122.464 171.741 122.463 173.411C122.463 173.923 122.446 174.326 122.407 174.54C122.244 175.452 117.116 180.081 112.575 180.909C112.272 180.963 111.924 180.989 111.538 180.989Z" fill="url(#paint12_linear_8_1140)"/>
<path d="M99.1149 249.246C97.3778 249.246 95.3528 248.74 93.4321 247.192C95.057 247.805 96.3891 248.058 97.4731 248.058C101.127 248.058 101.964 245.187 101.773 243.595C101.525 241.527 101.942 236.402 102.105 232.265C102.268 228.132 103.097 216.31 103.182 212.252C103.261 208.188 103.842 190.014 103.842 190.014L105.795 196.288C105.794 196.287 105.792 196.287 105.79 196.287C105.298 196.287 105.051 209.524 104.888 212.823C104.724 216.132 103.564 228.039 103.564 232.752C103.564 232.756 103.564 232.761 103.564 232.766C103.564 237.483 103.662 246.806 103.662 247.633C103.662 248.115 101.71 249.246 99.1149 249.246Z" fill="url(#paint13_linear_8_1140)"/>
<path d="M142.263 113.492C141.973 112.169 141.786 108.749 142.3 107.159C142.814 105.569 145.433 100.516 146.369 99.7673C147.304 99.0185 146.93 103.603 146.743 105.382C148.987 106.785 150.577 110.247 150.577 111.556C150.577 112.866 148.215 115.035 147.721 116.026C147.226 117.017 144.784 117.047 144.122 116.303C143.461 115.559 142.263 113.492 142.263 113.492Z" fill="#FFB798"/>
<path d="M118.334 143.788C116.787 144.683 114.153 148.646 114.987 151.354C116.186 155.247 119.449 156.682 122.301 155.943C126.096 154.959 139.241 145.44 140.48 144.324C141.72 143.208 148.586 117.832 148.71 116.716C148.834 115.6 143.75 112.624 141.767 113.492C140.898 114.36 134.328 135.693 133.956 136.685C133.585 137.677 120.33 142.635 118.334 143.788Z" fill="url(#paint14_linear_8_1140)"/>
<g filter="url(#filter3_d_8_1140)">
<path d="M256.169 127.578C256.169 130.307 254.236 131.423 251.874 130.058L243.267 125.087C240.904 123.723 238.972 120.374 238.972 117.645V107.702C238.972 104.973 240.904 103.857 243.267 105.222L251.874 110.193C254.236 111.557 256.169 114.906 256.169 117.635V127.578Z" fill="#FAFAFA"/>
</g>
<g filter="url(#filter4_d_8_1140)">
<path d="M240.233 104.927C240.233 104.927 240.353 104.855 240.589 104.754C240.831 104.661 241.213 104.571 241.7 104.617C242.188 104.658 242.767 104.842 243.361 105.17C243.949 105.493 244.611 105.857 245.333 106.254C246.772 107.062 248.461 107.984 250.251 109.007C250.699 109.263 251.153 109.522 251.614 109.785L251.96 109.983C252.104 110.073 252.19 110.139 252.308 110.217C252.526 110.377 252.758 110.504 252.967 110.693C253.847 111.428 254.523 112.323 255.122 113.278C255.65 114.271 256.087 115.319 256.28 116.422C256.445 117.545 256.377 118.604 256.384 119.634C256.375 121.696 256.329 123.62 256.308 125.271C256.291 126.095 256.275 126.852 256.261 127.522C256.247 128.194 256.117 128.797 255.91 129.237C255.704 129.683 255.435 129.969 255.235 130.132C255.027 130.287 254.907 130.353 254.907 130.353C254.907 130.353 255.024 130.278 255.217 130.111C255.407 129.937 255.642 129.637 255.822 129.199C256 128.756 256.095 128.189 256.077 127.522C256.063 126.852 256.047 126.095 256.029 125.271C256.009 123.62 255.962 121.696 255.954 119.634C255.939 118.606 255.988 117.521 255.824 116.502C255.633 115.466 255.203 114.469 254.693 113.526C254.136 112.614 253.475 111.736 252.695 111.067C252.507 110.89 252.262 110.751 252.051 110.592L251.736 110.372L251.391 110.172C250.933 109.904 250.481 109.639 250.037 109.379C248.256 108.34 246.613 107.338 245.195 106.496C244.49 106.068 243.843 105.676 243.27 105.329C242.707 104.981 242.159 104.777 241.69 104.712C241.22 104.648 240.842 104.702 240.6 104.779C240.357 104.863 240.233 104.927 240.233 104.927Z" fill="#FF4964"/>
</g>
<path d="M243.377 121.099V115.61C243.377 114.722 244.004 114.359 244.775 114.803L250.365 118.032C251.134 118.477 251.764 119.566 251.764 120.455V125.943L243.377 121.099Z" fill="url(#paint15_linear_8_1140)"/>
<path d="M250.785 118.274L249.947 117.791V115.853C249.947 114.339 248.88 112.493 247.57 111.735C246.261 110.979 245.195 111.594 245.195 113.109V115.045L244.355 114.562V112.624C244.355 110.576 245.797 109.743 247.57 110.767C249.344 111.791 250.785 114.29 250.785 116.338V118.274Z" fill="#FFCD1E"/>
<g filter="url(#filter5_d_8_1140)">
<path d="M120.464 69.907C120.464 73.4084 117.984 74.8414 114.953 73.0897L83.4803 54.9114C80.4488 53.1607 77.9683 48.8628 77.9683 45.3614L77.9673 31.5544C77.9673 28.053 80.4468 26.6201 83.4793 28.3708L114.952 46.5491C117.984 48.3008 120.464 52.5976 120.464 56.099V69.907Z" fill="#FAFAFA"/>
</g>
<path d="M78.9126 28.5463C78.9126 28.5463 78.9632 28.4986 79.0595 28.4053C79.1598 28.3169 79.2858 28.158 79.5191 28.0339C79.9429 27.7419 80.7271 27.4718 81.7019 27.6486C81.822 27.6714 81.946 27.6943 82.0731 27.7191C82.1992 27.7469 82.3212 27.7995 82.4493 27.8402C82.5773 27.8859 82.7113 27.9236 82.8414 27.9793C82.9684 28.0408 83.0985 28.1044 83.2315 28.1689C83.7635 28.4271 84.2985 28.7568 84.8921 29.0805C86.0694 29.7438 87.3975 30.4926 88.8447 31.3089C91.7352 32.9533 95.1072 34.8708 98.7203 36.9254C102.324 38.9949 106.169 41.2024 110.013 43.4098C110.972 43.9669 111.931 44.524 112.885 45.0781C113.362 45.3552 113.839 45.6322 114.313 45.9083L115.025 46.3214C115.274 46.4793 115.493 46.6094 115.724 46.7752C117.546 48.1158 118.836 49.9479 119.697 51.8724C120.122 52.8386 120.431 53.8426 120.569 54.8564C120.713 55.8812 120.636 56.8643 120.645 57.8127C120.63 59.7183 120.616 61.5196 120.605 63.183C120.587 64.8463 120.571 66.3706 120.557 67.7211C120.516 69.0706 120.599 70.2543 120.38 71.2225C120.158 72.1827 119.675 72.8322 119.278 73.1628C119.175 73.2433 119.087 73.3168 119.006 73.3754C118.919 73.422 118.846 73.4617 118.786 73.4935C118.668 73.5571 118.607 73.5898 118.607 73.5898C118.607 73.5898 118.667 73.5551 118.783 73.4876C118.841 73.4538 118.912 73.4121 118.998 73.3624C119.076 73.3019 119.161 73.2254 119.261 73.142C119.645 72.8014 120.088 72.147 120.286 71.2016C120.476 70.2612 120.367 69.0686 120.372 67.7211C120.358 66.3706 120.343 64.8463 120.326 63.183C120.312 61.5196 120.298 59.7183 120.284 57.8127C120.261 56.8594 120.319 55.8743 120.167 54.915C120.015 53.9488 119.723 52.9786 119.303 52.0462C118.468 50.1922 117.179 48.4058 115.469 47.1615C115.257 47.0096 115.005 46.8606 114.792 46.7256L114.078 46.3164C113.602 46.0424 113.124 45.7683 112.646 45.4932C111.688 44.9441 110.727 44.392 109.766 43.8398C105.933 41.6125 102.099 39.3851 98.5059 37.2978C94.9205 35.1946 91.5744 33.2324 88.7058 31.5502C87.2754 30.7031 85.9632 29.9276 84.8008 29.2394C84.2172 28.9028 83.6821 28.5542 83.168 28.2901C83.0409 28.2235 82.9148 28.158 82.7917 28.0935C82.6657 28.0369 82.5357 27.9971 82.4116 27.9485C82.2865 27.9058 82.1674 27.8512 82.0453 27.8204C81.9232 27.7946 81.8021 27.7687 81.685 27.7439C80.739 27.5503 79.9628 27.7806 79.535 28.0557C79.3007 28.1699 79.1677 28.3248 79.0645 28.4102C78.9642 28.5006 78.9126 28.5463 78.9126 28.5463Z" fill="#FF4964"/>
<path d="M94.3939 45.1731C94.3939 46.8851 93.8122 48.1015 92.8653 48.6944C91.8588 49.3289 90.4443 49.2703 88.875 48.3637C87.3056 47.457 85.8882 45.8801 84.8827 44.0798C83.9347 42.3916 83.353 40.5049 83.3521 38.7949C83.353 35.2727 85.8257 33.8477 88.876 35.6093C91.9243 37.3699 94.3939 41.6498 94.3939 45.1731Z" fill="url(#paint16_linear_8_1140)"/>
<path d="M90.8863 42.3115C90.8863 43.5945 89.985 44.1148 88.8743 43.4733C87.7636 42.8318 86.8623 41.2708 86.8623 39.9868C86.8623 38.7029 87.7626 38.1835 88.8743 38.825C89.985 39.4665 90.8863 41.0275 90.8863 42.3115Z" fill="#FFD063"/>
<path d="M92.865 48.6939C91.8585 49.3284 90.444 49.2698 88.8746 48.3632C87.3053 47.4566 85.8878 45.8796 84.8823 44.0793C85.3111 42.7357 86.4358 42.1488 87.8413 42.546C88.1719 42.6404 88.5173 42.7903 88.8746 42.9959C89.232 43.2014 89.5804 43.4537 89.908 43.7397C91.3135 44.9661 92.4371 46.8518 92.865 48.6939Z" fill="#FFD063"/>
<path d="M95.4051 56.4038L82.3423 48.8588V46.9502L95.4051 54.4952V56.4038Z" fill="#FF9158"/>
<path d="M112.278 52.2671L99.2148 44.7221V43.449L112.278 50.9931V52.2671Z" fill="#FF9158"/>
<path d="M116.79 58.8784L99.2148 48.7277V47.4546L116.79 57.6053V58.8784Z" fill="#FFD063"/>
<path d="M116.79 62.8833L99.2148 52.7326L99.2158 51.4595L116.79 61.6102V62.8833Z" fill="#FFD063"/>
<path d="M116.791 66.8892L99.2163 56.7385V55.4644L116.791 65.6161V66.8892Z" fill="#FFD063"/>
<g filter="url(#filter6_d_8_1140)">
<path d="M274.174 162.203C274.174 164.63 272.243 165.499 269.88 164.135L243.11 148.673C240.749 147.309 238.815 144.207 238.815 141.78C238.815 139.354 240.749 138.484 243.11 139.848L269.88 155.311C272.243 156.674 274.174 159.776 274.174 162.203Z" fill="#FAFAFA"/>
</g>
<path d="M239.869 139.596C239.875 139.608 240.016 139.488 240.336 139.386C240.651 139.277 241.163 139.205 241.781 139.346C242.404 139.468 243.096 139.835 243.846 140.262C244.605 140.685 245.462 141.161 246.397 141.681C248.259 142.731 250.433 143.957 252.761 145.269C255.081 146.598 257.556 148.014 260.031 149.43C262.495 150.866 264.958 152.302 267.267 153.648C267.844 153.985 268.412 154.318 268.967 154.643C269.514 154.974 270.073 155.276 270.577 155.647C271.595 156.399 272.352 157.319 272.933 158.231C274.098 160.061 274.452 161.968 274.117 163.2C273.954 163.818 273.616 164.219 273.352 164.421C273.223 164.53 273.108 164.588 273.03 164.625C272.953 164.665 272.913 164.686 272.913 164.686C272.913 164.686 272.951 164.663 273.027 164.62C273.102 164.578 273.213 164.514 273.335 164.401C273.587 164.189 273.886 163.779 274.024 163.178C274.165 162.584 274.123 161.808 273.909 160.983C273.686 160.156 273.282 159.262 272.699 158.383C272.115 157.511 271.347 156.63 270.372 155.946C269.882 155.601 269.323 155.317 268.763 154.995C268.204 154.677 267.633 154.352 267.053 154.021C264.732 152.693 262.258 151.276 259.783 149.86C257.319 148.424 254.856 146.988 252.547 145.642C250.246 144.281 248.098 143.01 246.258 141.922C245.34 141.372 244.499 140.868 243.754 140.421C243.014 139.962 242.365 139.583 241.759 139.44C241.162 139.281 240.66 139.319 240.345 139.41C240.023 139.495 239.873 139.608 239.869 139.596Z" fill="#FF4964"/>
<path d="M263.297 154.654C262.702 154.311 262.222 154.589 262.222 155.273C262.222 155.958 262.702 156.791 263.297 157.134C263.889 157.477 264.37 157.199 264.37 156.513C264.37 155.829 263.889 154.996 263.297 154.654ZM259.288 152.338C258.695 151.995 258.215 152.273 258.214 152.958C258.214 153.644 258.695 154.476 259.288 154.818C259.88 155.161 260.361 154.884 260.361 154.199C260.362 153.514 259.88 152.68 259.288 152.338ZM255.278 150.023C254.686 149.68 254.205 149.958 254.205 150.643C254.205 151.328 254.686 152.161 255.278 152.504C255.871 152.846 256.352 152.568 256.352 151.883C256.352 151.199 255.871 150.366 255.278 150.023ZM251.27 147.707C250.677 147.365 250.196 147.643 250.196 148.328C250.196 149.013 250.677 149.845 251.27 150.188C251.864 150.53 252.344 150.253 252.344 149.568C252.344 148.883 251.864 148.05 251.27 147.707ZM247.262 145.393C246.668 145.05 246.188 145.328 246.188 146.012C246.188 146.697 246.668 147.531 247.262 147.873C247.855 148.216 248.335 147.938 248.335 147.252C248.335 146.568 247.855 145.735 247.262 145.393ZM244.326 144.937C244.326 145.622 243.845 145.9 243.253 145.557C242.66 145.215 242.179 144.382 242.179 143.696C242.18 143.012 242.66 142.734 243.253 143.077C243.845 143.419 244.327 144.253 244.326 144.937Z" fill="url(#paint17_linear_8_1140)"/>
<path d="M269.77 161.283C269.504 161.283 269.248 161.139 269.114 160.887L267.467 157.791C267.275 157.428 267.413 156.978 267.774 156.784C268.134 156.592 268.587 156.729 268.781 157.092L270.08 159.535L275.616 156.622C275.978 156.43 276.43 156.57 276.62 156.934C276.811 157.298 276.672 157.747 276.309 157.939L270.117 161.197C270.006 161.255 269.888 161.283 269.77 161.283Z" fill="url(#paint18_linear_8_1140)"/>
<path d="M102.572 128.991L102.55 128.94C102.557 128.957 102.564 128.974 102.572 128.991Z" fill="white"/>
<defs>
<filter id="filter0_d_8_1140" x="0" y="154.212" width="276.253" height="170.461" filterUnits="userSpaceOnUse" color-interpolation-filters="sRGB">
<feFlood flood-opacity="0" result="BackgroundImageFix"/>
<feColorMatrix in="SourceAlpha" type="matrix" values="0 0 0 0 0 0 0 0 0 0 0 0 0 0 0 0 0 0 127 0" result="hardAlpha"/>
<feOffset dy="7"/>
<feGaussianBlur stdDeviation="7"/>
<feComposite in2="hardAlpha" operator="out"/>
<feColorMatrix type="matrix" values="0 0 0 0 0 0 0 0 0 0 0 0 0 0 0 0 0 0 0.25 0"/>
<feBlend mode="normal" in2="BackgroundImageFix" result="effect1_dropShadow_8_1140"/>
<feBlend mode="normal" in="SourceGraphic" in2="effect1_dropShadow_8_1140" result="shape"/>
</filter>
<filter id="filter1_d_8_1140" x="4" y="153.92" width="278.851" height="173.08" filterUnits="userSpaceOnUse" color-interpolation-filters="sRGB">
<feFlood flood-opacity="0" result="BackgroundImageFix"/>
<feColorMatrix in="SourceAlpha" type="matrix" values="0 0 0 0 0 0 0 0 0 0 0 0 0 0 0 0 0 0 127 0" result="hardAlpha"/>
<feOffset dx="5" dy="8"/>
<feGaussianBlur stdDeviation="7.5"/>
<feComposite in2="hardAlpha" operator="out"/>
<feColorMatrix type="matrix" values="0 0 0 0 0 0 0 0 0 0 0 0 0 0 0 0 0 0 0.25 0"/>
<feBlend mode="normal" in2="BackgroundImageFix" result="effect1_dropShadow_8_1140"/>
<feBlend mode="normal" in="SourceGraphic" in2="effect1_dropShadow_8_1140" result="shape"/>
</filter>
<filter id="filter2_d_8_1140" x="84.9092" y="242.042" width="55.002" height="35.1484" filterUnits="userSpaceOnUse" color-interpolation-filters="sRGB">
<feFlood flood-opacity="0" result="BackgroundImageFix"/>
<feColorMatrix in="SourceAlpha" type="matrix" values="0 0 0 0 0 0 0 0 0 0 0 0 0 0 0 0 0 0 127 0" result="hardAlpha"/>
<feOffset dy="4"/>
<feGaussianBlur stdDeviation="2"/>
<feComposite in2="hardAlpha" operator="out"/>
<feColorMatrix type="matrix" values="0 0 0 0 0 0 0 0 0 0 0 0 0 0 0 0 0 0 0.25 0"/>
<feBlend mode="normal" in2="BackgroundImageFix" result="effect1_dropShadow_8_1140"/>
<feBlend mode="normal" in="SourceGraphic" in2="effect1_dropShadow_8_1140" result="shape"/>
</filter>
<filter id="filter3_d_8_1140" x="234.972" y="104.639" width="25.1973" height="34.0015" filterUnits="userSpaceOnUse" color-interpolation-filters="sRGB">
<feFlood flood-opacity="0" result="BackgroundImageFix"/>
<feColorMatrix in="SourceAlpha" type="matrix" values="0 0 0 0 0 0 0 0 0 0 0 0 0 0 0 0 0 0 127 0" result="hardAlpha"/>
<feOffset dy="4"/>
<feGaussianBlur stdDeviation="2"/>
<feComposite in2="hardAlpha" operator="out"/>
<feColorMatrix type="matrix" values="0 0 0 0 0 0 0 0 0 0 0 0 0 0 0 0 0 0 0.25 0"/>
<feBlend mode="normal" in2="BackgroundImageFix" result="effect1_dropShadow_8_1140"/>
<feBlend mode="normal" in="SourceGraphic" in2="effect1_dropShadow_8_1140" result="shape"/>
</filter>
<filter id="filter4_d_8_1140" x="236.233" y="104.604" width="24.1587" height="33.7485" filterUnits="userSpaceOnUse" color-interpolation-filters="sRGB">
<feFlood flood-opacity="0" result="BackgroundImageFix"/>
<feColorMatrix in="SourceAlpha" type="matrix" values="0 0 0 0 0 0 0 0 0 0 0 0 0 0 0 0 0 0 127 0" result="hardAlpha"/>
<feOffset dy="4"/>
<feGaussianBlur stdDeviation="2"/>
<feComposite in2="hardAlpha" operator="out"/>
<feColorMatrix type="matrix" values="0 0 0 0 0 0 0 0 0 0 0 0 0 0 0 0 0 0 0.25 0"/>
<feBlend mode="normal" in2="BackgroundImageFix" result="effect1_dropShadow_8_1140"/>
<feBlend mode="normal" in="SourceGraphic" in2="effect1_dropShadow_8_1140" result="shape"/>
</filter>
<filter id="filter5_d_8_1140" x="73.9673" y="27.6235" width="50.4971" height="54.2139" filterUnits="userSpaceOnUse" color-interpolation-filters="sRGB">
<feFlood flood-opacity="0" result="BackgroundImageFix"/>
<feColorMatrix in="SourceAlpha" type="matrix" values="0 0 0 0 0 0 0 0 0 0 0 0 0 0 0 0 0 0 127 0" result="hardAlpha"/>
<feOffset dy="4"/>
<feGaussianBlur stdDeviation="2"/>
<feComposite in2="hardAlpha" operator="out"/>
<feColorMatrix type="matrix" values="0 0 0 0 0 0 0 0 0 0 0 0 0 0 0 0 0 0 0.25 0"/>
<feBlend mode="normal" in2="BackgroundImageFix" result="effect1_dropShadow_8_1140"/>
<feBlend mode="normal" in="SourceGraphic" in2="effect1_dropShadow_8_1140" result="shape"/>
</filter>
<filter id="filter6_d_8_1140" x="234.815" y="139.203" width="43.3589" height="33.5781" filterUnits="userSpaceOnUse" color-interpolation-filters="sRGB">
<feFlood flood-opacity="0" result="BackgroundImageFix"/>
<feColorMatrix in="SourceAlpha" type="matrix" values="0 0 0 0 0 0 0 0 0 0 0 0 0 0 0 0 0 0 127 0" result="hardAlpha"/>
<feOffset dy="4"/>
<feGaussianBlur stdDeviation="2"/>
<feComposite in2="hardAlpha" operator="out"/>
<feColorMatrix type="matrix" values="0 0 0 0 0 0 0 0 0 0 0 0 0 0 0 0 0 0 0.25 0"/>
<feBlend mode="normal" in2="BackgroundImageFix" result="effect1_dropShadow_8_1140"/>
<feBlend mode="normal" in="SourceGraphic" in2="effect1_dropShadow_8_1140" result="shape"/>
</filter>
<linearGradient id="paint0_linear_8_1140" x1="14" y1="231.898" x2="262.85" y2="231.898" gradientUnits="userSpaceOnUse">
<stop stop-color="#EAF5F5"/>
<stop offset="0.0123967" stop-color="#EAF5F5"/>
<stop offset="1" stop-color="#F0FAFA"/>
</linearGradient>
<linearGradient id="paint1_linear_8_1140" x1="13.9991" y1="231.898" x2="262.85" y2="231.898" gradientUnits="userSpaceOnUse">
<stop stop-color="#BFD4D4"/>
<stop offset="0.0123967" stop-color="#BFD4D4"/>
<stop offset="1" stop-color="#CBDDDD"/>
</linearGradient>
<linearGradient id="paint2_linear_8_1140" x1="145.095" y1="120.124" x2="202.319" y2="120.124" gradientUnits="userSpaceOnUse">
<stop stop-color="#FF6464"/>
<stop offset="0.00413223" stop-color="#FF6464"/>
<stop offset="0.991736" stop-color="#FFA267"/>
<stop offset="1" stop-color="#FFA267"/>
</linearGradient>
<linearGradient id="paint3_linear_8_1140" x1="145.096" y1="120.124" x2="202.32" y2="120.124" gradientUnits="userSpaceOnUse">
<stop stop-color="#FF6870"/>
<stop offset="0.00413223" stop-color="#FF6870"/>
<stop offset="0.991736" stop-color="#FFA673"/>
<stop offset="1" stop-color="#FFA673"/>
</linearGradient>
<linearGradient id="paint4_linear_8_1140" x1="144.599" y1="150.184" x2="202.815" y2="150.184" gradientUnits="userSpaceOnUse">
<stop stop-color="#FF6464"/>
<stop offset="0.00413223" stop-color="#FF6464"/>
<stop offset="0.991736" stop-color="#FFA267"/>
<stop offset="1" stop-color="#FFA267"/>
</linearGradient>
<linearGradient id="paint5_linear_8_1140" x1="144.599" y1="150.184" x2="202.816" y2="150.184" gradientUnits="userSpaceOnUse">
<stop stop-color="#FF6870"/>
<stop offset="0.00413223" stop-color="#FF6870"/>
<stop offset="0.991736" stop-color="#FFA673"/>
<stop offset="1" stop-color="#FFA673"/>
</linearGradient>
<linearGradient id="paint6_linear_8_1140" x1="107.363" y1="166.321" x2="107.363" y2="258.18" gradientUnits="userSpaceOnUse">
<stop stop-color="#47D1EF"/>
<stop offset="1" stop-color="#7D34C2"/>
</linearGradient>
<linearGradient id="paint7_linear_8_1140" x1="107.362" y1="166.32" x2="107.362" y2="258.179" gradientUnits="userSpaceOnUse">
<stop stop-color="#631FF5"/>
<stop offset="1" stop-color="#5D2BBA"/>
</linearGradient>
<linearGradient id="paint8_linear_8_1140" x1="86.3752" y1="146.115" x2="93.8122" y2="146.115" gradientUnits="userSpaceOnUse">
<stop stop-color="#FF9158"/>
<stop offset="0.00413223" stop-color="#FF9158"/>
<stop offset="1" stop-color="#FF4964"/>
</linearGradient>
<linearGradient id="paint9_linear_8_1140" x1="86.3738" y1="146.115" x2="93.8107" y2="146.115" gradientUnits="userSpaceOnUse">
<stop stop-color="#F57541"/>
<stop offset="0.00413223" stop-color="#F57541"/>
<stop offset="1" stop-color="#F53B4A"/>
</linearGradient>
<linearGradient id="paint10_linear_8_1140" x1="87.2691" y1="153.616" x2="123.235" y2="153.616" gradientUnits="userSpaceOnUse">
<stop stop-color="#FF9158"/>
<stop offset="0.00413223" stop-color="#FF9158"/>
<stop offset="1" stop-color="#FF4964"/>
</linearGradient>
<linearGradient id="paint11_linear_8_1140" x1="342.518" y1="-39.9623" x2="-64.8804" y2="351.988" gradientUnits="userSpaceOnUse">
<stop stop-color="#A4BABD"/>
<stop offset="1" stop-color="#6E2ABD"/>
</linearGradient>
<linearGradient id="paint12_linear_8_1140" x1="87.2693" y1="153.616" x2="123.235" y2="153.616" gradientUnits="userSpaceOnUse">
<stop stop-color="#F57541"/>
<stop offset="0.00413223" stop-color="#F57541"/>
<stop offset="1" stop-color="#F53B4A"/>
</linearGradient>
<linearGradient id="paint13_linear_8_1140" x1="107.363" y1="166.32" x2="107.363" y2="258.178" gradientUnits="userSpaceOnUse">
<stop stop-color="#631FF5"/>
<stop offset="1" stop-color="#5D2BBA"/>
</linearGradient>
<linearGradient id="paint14_linear_8_1140" x1="115.608" y1="134.732" x2="145.119" y2="134.732" gradientUnits="userSpaceOnUse">
<stop stop-color="#FF9158"/>
<stop offset="0.00413223" stop-color="#FF9158"/>
<stop offset="1" stop-color="#FF4964"/>
</linearGradient>
<linearGradient id="paint15_linear_8_1140" x1="251.312" y1="117.927" x2="242.989" y2="122.099" gradientUnits="userSpaceOnUse">
<stop stop-color="#0989FF"/>
<stop offset="0.00413223" stop-color="#FF9158"/>
<stop offset="1" stop-color="#FF4964"/>
</linearGradient>
<linearGradient id="paint16_linear_8_1140" x1="92.6509" y1="39.4245" x2="84.5644" y2="43.4781" gradientUnits="userSpaceOnUse">
<stop stop-color="#FF9158"/>
<stop offset="0.00413223" stop-color="#FF9158"/>
<stop offset="1" stop-color="#FF4964"/>
</linearGradient>
<linearGradient id="paint17_linear_8_1140" x1="259.323" y1="146.005" x2="246.37" y2="152.499" gradientUnits="userSpaceOnUse">
<stop stop-color="#FF9158"/>
<stop offset="0.00413223" stop-color="#FF9158"/>
<stop offset="1" stop-color="#FF4964"/>
</linearGradient>
<linearGradient id="paint18_linear_8_1140" x1="275.62" y1="154.937" x2="267.961" y2="158.776" gradientUnits="userSpaceOnUse">
<stop stop-color="#FF9158"/>
<stop offset="0.00413223" stop-color="#FF9158"/>
<stop offset="1" stop-color="#FF4964"/>
</linearGradient>
</defs>
</svg>
